<?xml version="1.0" encoding="iso-8859-1"?>
<!-- Generator: Adobe Illustrator 18.1.1, SVG Export Plug-In . SVG Version: 6.00 Build 0)  -->
<svg version="1.1" id="Layer_1" xmlns="http://www.w3.org/2000/svg" xmlns:xlink="http://www.w3.org/1999/xlink" x="0px" y="0px"
	 viewBox="0 0 266.344 176.536" style="enable-background:new 0 0 266.344 176.536;" xml:space="preserve">
<g>
	<path style="fill:#47C1C1;stroke:#231300;stroke-miterlimit:10;" d="M159.613,27.776c2.914,0.118,5.216,0.311,7.516,0.288
		c13.815-0.138,27.644-0.776,41.438-0.314c7.286,0.244,14.554,2.167,21.746,3.724c5.415,1.173,9.171,4.978,12.075,9.489
		c2.71,4.21,5.185,8.577,7.649,12.939c4.551,8.055,6.664,16.841,7.134,25.989c0.821,15.96,1.455,31.93,2.096,47.899
		c0.145,3.599,0.664,6.531,3.453,9.582c4.018,4.396,3.867,10.625,3.376,16.346c-0.269,3.144-2.979,3.734-5.909,3.846
		c-7.345,0.282-14.68,0.852-22.114,1.312c-6.693,15.005-19.359,18.417-33.428,17.53c-13.286-0.837-19.72-10.151-23.248-22.958
		c-36.042,1.225-72.221-0.666-108.913,2.853c-6.653,13.479-17.836,18.731-32.806,15.923c-11.698-2.194-17.928-9.99-20.845-21.071
		c-4.21,0.452-8.191,0.679-12.092,1.357c-3.692,0.642-5.395-1.247-6.257-4.286c-0.446-1.572-0.5-3.299-0.48-4.953
		c0.371-31.498,0.869-62.994,1.132-94.492c0.098-11.661-0.327-23.327-0.538-34.99C0.545,10.93,0.315,8.073,0.313,5.214
		c-0.003-3.02,2.431-5.169,4.539-4.018c6.415,3.503,13.145,1.995,19.632,1.957c37.67-0.221,75.339-0.803,113.006-1.411
		c5.442-0.088,10.893-0.818,16.3-1.551c4.239-0.575,5.78-0.046,6.32,4.228c0.502,3.98,0.193,8.074,0.098,12.114
		C160.124,20.059,159.843,23.58,159.613,27.776z M19.789,132.238c1.616-2.342,3.553-4.528,4.778-7.06
		c2.298-4.752,6.045-7.199,11.039-8.095c3.749-0.673,7.478-1.621,11.257-1.923c12.081-0.965,20.854,4.466,25.519,15.508
		c0.727,1.72,1.371,3.476,2.193,5.568c25.668-0.841,51.052-1.673,77.226-2.531c-0.099-11.837-0.191-22.861-0.286-34.261
		c-4.813-0.306-8.85-0.84-12.877-0.773c-21.937,0.367-43.876,0.717-65.805,1.4c-17.162,0.535-34.31,1.553-51.465,2.343
		c-4.711,0.217-9.446,0.287-14.373,3.603c9.153-0.502,17.488-0.96,25.823-1.418c0.045,0.495,0.09,0.991,0.134,1.486
		c-1.295,0.216-2.586,0.454-3.884,0.643c-6.36,0.928-12.745,1.705-19.073,2.814c-3.953,0.693-4.697,3.265-3.227,7.294
		c6.729-0.056,13.243-0.111,19.756-0.165c0.041,0.415,0.082,0.831,0.124,1.246c-6.62,1.076-13.24,2.153-20.324,3.304
		c0.307,2.999,0.536,5.237,0.799,7.808c3.639,0.134,6.709,0.267,9.78,0.351c2.001,0.055,3.124,0.927,3.054,3.031
		c-4.213,0.035-8.425,0.071-12.896,0.108c0.025,3.027,0.042,5.054,0.064,7.592c3.902-0.033,7.357-0.062,10.965-0.092
		C18.673,137.346,19.231,134.792,19.789,132.238z M6.468,97.674c12.925-0.514,25.006-1.105,37.094-1.443
		c12.146-0.34,24.302-0.329,36.449-0.656c12.121-0.326,24.244-0.727,36.351-1.378c11.942-0.642,23.954-0.413,36.126-1.596
		c0.312-14.148,0.604-27.358,0.918-41.54c-9.124,0.076-17.397,0.415-25.653,0.168c-33.336-1-66.657-0.865-99.966,0.82
		c-5.702,0.288-11.408,0.644-17.085,1.226c-3.686,0.378-3.84,2.644-2.356,5.995c7.651-0.064,15.198-0.127,22.746-0.19
		c0.015,0.306,0.031,0.612,0.045,0.918c-7.929,0.906-15.859,1.812-24.065,2.75c0.03,3.599,0.055,6.534,0.085,10.119
		c8.241,0.151,16.014,0.293,23.787,0.436c-0.018,0.311-0.036,0.622-0.053,0.932c-7.959,0.814-15.918,1.628-23.851,2.439
		c0.026,3.131,0.043,5.196,0.062,7.357c7.93-0.066,15.489-0.13,23.048-0.193c0.011,0.257,0.022,0.515,0.033,0.772
		c-7.676,1.182-15.351,2.365-23.374,3.601C6.695,91.331,6.604,93.881,6.468,97.674z M7.192,9.659c-0.747,4.534,0.24,6.38,3.868,6.2
		c2.14-0.106,4.294,0.098,6.441,0.09c5.283-0.019,10.566-0.08,15.849-0.124c0.039,0.249,0.078,0.498,0.117,0.747
		c-8.591,1.011-17.182,2.022-26.261,3.091c0.231,3.061,0.4,5.297,0.613,8.109c6.89-0.058,13.186-0.11,19.482-0.163
		c0.041,0.497,0.082,0.993,0.123,1.49c-6.459,0.805-12.918,1.61-19.992,2.492c0.166,2.622,0.304,4.798,0.467,7.379
		c8.001-0.443,15.193-0.842,22.385-1.24c0.045,0.455,0.091,0.91,0.137,1.365c-7.774,1.042-15.547,2.085-25.169,3.375
		c2.321,2.292,3.184,3.897,4.317,4.119c3.012,0.588,6.147,0.846,9.221,0.764c15.952-0.426,31.898-1.164,47.852-1.473
		c15.016-0.291,30.094-0.992,45.044,0.001c12.455,0.827,24.724,0.28,37.056-0.738c1.555-0.128,3.061-0.858,4.788-1.368
		c0.008-12.177,0.984-23.977-0.173-35.339C104.162,8.847,55.826,9.251,7.192,9.659z M170.221,34.633
		c-0.184,3.122-0.392,4.995-0.389,6.867c0.033,28.147,0.142,56.293,0.127,84.44c-0.007,13.645,0.429,10.789-10.963,13.659
		c-0.206,2.206-0.43,4.611-0.635,6.806c7.926-0.066,14.936-0.125,21.981-0.184c0.54-2.117,0.882-3.482,1.236-4.845
		c3.822-14.706,10.291-22.199,26.356-25.709c15.935-3.481,32.002,8.098,32.626,25.434c0.118,3.287,0.068,6.581,0.099,10.249
		c6.415,0.778,12.427,0.754,18.065-1.738c1.2-5.237-0.479-8.719-4.686-10.09c-0.925-18.708-1.999-36.776-2.653-54.858
		c-0.491-13.562-5.348-25.56-12.416-36.762c-4.018-6.367-9.127-11.676-17.475-12.18c-3.302-0.2-6.577-1.091-9.871-1.132
		c-10.966-0.14-21.936-0.04-32.904-0.024C176.12,34.568,173.522,34.605,170.221,34.633z M234.293,143.004
		c-0.066-10.88-6.705-17.779-14.178-20.547c-8.879-3.288-18.004-1.195-24.321,5.649c-10.524,11.401-10.596,25.784-0.943,37.537
		c1.411,1.718,3.746,2.83,5.848,3.798c6.764,3.113,13.474,0.746,20.146-0.589c5.48-1.096,8.665-4.917,10.085-9.968
		C232.391,153.686,233.199,148.305,234.293,143.004z M67.745,143.55c-0.56-3.497-0.609-7.177-1.781-10.455
		c-2.872-8.028-9.019-12.401-17.592-11.806c-8.481,0.588-17.103,1.322-21.035,11.387c-5.121,13.107-1.254,26.932,10.556,32.253
		c11.207,5.049,18.839,2.577,25.243-5.794C66.656,154.534,67.525,149.227,67.745,143.55z M74.876,148.457
		c25.652-0.214,50.97-0.426,76.643-0.641c-0.024-2.855-0.043-5.07-0.065-7.802c-1.843,0.016-3.235,0.001-4.626,0.043
		c-21.17,0.636-42.34,1.258-63.507,1.956c-2.119,0.07-4.243,0.516-6.329,0.96C74.135,143.58,73.991,145.569,74.876,148.457z
		 M160.091,131.979c0.562,0.07,1.124,0.141,1.686,0.211c0.556-1.176,1.47-2.313,1.601-3.535c0.459-4.256,0.884-8.541,0.897-12.816
		c0.065-21.191,0.02-42.383-0.049-63.575c-0.016-4.765-0.199-9.534-0.475-14.291c-0.13-2.235-1.214-3.568-4.362-2.13
		c0.025,30.375-3.18,60.942-0.457,91.578C159.069,128.962,159.693,130.461,160.091,131.979z M18.266,146.2
		c-0.173-1.069-0.282-2.356-0.397-2.357c-3.268-0.017-6.536,0.096-9.803,0.187c0.02,0.368,0.041,0.736,0.061,1.104
		C11.31,145.47,14.492,145.804,18.266,146.2z"/>
	<path style="fill:#47C1C1;stroke:#231300;stroke-miterlimit:10;" d="M179.834,68.567c-0.06-7.132-0.081-14.264-0.19-21.396
		c-0.101-6.653,0.992-7.911,7.674-7.822c11.409,0.151,22.832,0.183,34.215,0.844c3.019,0.175,6.553,1.788,8.764,3.886
		c12.488,11.854,16.712,27.148,17.012,43.805c0.12,6.642-0.99,7.761-7.945,7.989c-7.13,0.233-14.286,0.279-21.409-0.052
		c-11.162-0.519-22.291-1.544-33.418,0.601c-3.638,0.701-4.762-0.654-4.83-5.043c-0.117-7.603-0.142-15.207-0.206-22.81
		C179.613,68.568,179.724,68.567,179.834,68.567z M241.631,88.509c-0.022-2.608,0.077-4.706-0.076-6.784
		c-0.811-10.974-4.802-20.542-11.659-29.27c-3.29-4.188-6.822-6.284-11.879-6.51c-6.662-0.298-13.32-0.708-19.982-1.012
		c-4.007-0.183-7.986-0.085-11.183,1.647c-0.288,7.511-0.8,14.394-0.747,21.272c0.054,6.97-0.576,14.041,1.134,21.903
		C205.335,87.271,222.895,92.297,241.631,88.509z"/>
	<path style="fill:#47C1C1;stroke:#231300;stroke-miterlimit:10;" d="M190.136,100.968c0.765,1.838,1.536,3.693,2.393,5.754
		c-3.889,1.975-7.479,0.969-10.882,0.719c-0.924-0.068-2.144-2.35-2.331-3.737c-0.102-0.759,1.577-2.384,2.619-2.546
		C184.484,100.763,187.129,100.993,190.136,100.968z"/>
	<path style="fill:#47C1C1;stroke:#231300;stroke-miterlimit:10;" d="M211.449,153.838c-3.299,0.254-5.646-1.404-7.191-5
		c-1.313-3.057-0.196-5.12,1.77-7.006c3.567-3.423,13.052-0.633,14.375,4.139C221.627,150.385,218.052,153.716,211.449,153.838z"/>
	<path style="fill:#47C1C1;stroke:#231300;stroke-miterlimit:10;" d="M45.96,152.38c-4.83,0.034-7.111-2.292-7.339-7.483
		c-0.177-4.028,3.571-7.183,8.613-7.251c4.296-0.058,7.247,2.841,7.109,6.984C54.192,149.197,50.784,152.346,45.96,152.38z"/>
</g>
<g>
</g>
<g>
</g>
<g>
</g>
<g>
</g>
<g>
</g>
<g>
</g>
<g>
</g>
<g>
</g>
<g>
</g>
<g>
</g>
<g>
</g>
<g>
</g>
<g>
</g>
<g>
</g>
<g>
</g>
</svg>
