<?xml version="1.0" encoding="iso-8859-1"?>
<!-- Generator: Adobe Illustrator 18.1.1, SVG Export Plug-In . SVG Version: 6.00 Build 0)  -->
<svg version="1.1" id="Layer_1" xmlns="http://www.w3.org/2000/svg" xmlns:xlink="http://www.w3.org/1999/xlink" x="0px" y="0px"
	 viewBox="0 0 228.945 167.094" style="enable-background:new 0 0 228.945 167.094;" xml:space="preserve">
<g>
	<path style="fill:#47C1C1;stroke:#231300;stroke-miterlimit:10;" d="M479.542,345.561c2.914,0.118,5.216,0.311,7.516,0.288
		c13.815-0.138,27.645-0.776,41.438-0.314c7.286,0.244,14.554,2.167,21.746,3.724c5.415,1.173,9.171,4.978,12.075,9.489
		c2.71,4.21,5.185,8.577,7.649,12.939c4.551,8.055,6.664,16.841,7.134,25.989c0.821,15.96,1.455,31.93,2.096,47.899
		c0.145,3.599,0.664,6.531,3.453,9.582c4.018,4.396,3.867,10.625,3.376,16.346c-0.269,3.144-2.979,3.734-5.909,3.846
		c-7.346,0.282-14.68,0.852-22.114,1.312c-6.693,15.005-19.359,18.417-33.428,17.53c-13.286-0.837-19.72-10.151-23.248-22.958
		c-36.042,1.225-72.221-0.666-108.913,2.853c-6.653,13.479-17.836,18.731-32.806,15.923c-11.698-2.194-17.928-9.99-20.845-21.071
		c-4.21,0.452-8.191,0.679-12.092,1.357c-3.692,0.642-5.395-1.247-6.257-4.286c-0.446-1.572-0.5-3.299-0.48-4.953
		c0.371-31.498,0.869-62.994,1.132-94.492c0.098-11.661-0.327-23.327-0.538-34.99c-0.052-2.859-0.282-5.717-0.284-8.575
		c-0.003-3.02,2.431-5.169,4.539-4.018c6.415,3.503,13.145,1.995,19.632,1.957c37.67-0.221,75.339-0.803,113.006-1.411
		c5.442-0.088,10.893-0.818,16.3-1.551c4.239-0.575,5.78-0.046,6.32,4.228c0.502,3.98,0.193,8.074,0.098,12.114
		C480.053,337.843,479.772,341.364,479.542,345.561z M339.718,450.022c1.616-2.342,3.553-4.528,4.777-7.06
		c2.298-4.752,6.044-7.199,11.039-8.095c3.749-0.673,7.478-1.621,11.257-1.923c12.081-0.965,20.854,4.466,25.519,15.508
		c0.727,1.72,1.372,3.476,2.193,5.568c25.668-0.842,51.052-1.673,77.226-2.531c-0.099-11.837-0.191-22.861-0.286-34.261
		c-4.813-0.306-8.85-0.84-12.877-0.773c-21.937,0.367-43.876,0.717-65.805,1.4c-17.162,0.535-34.31,1.553-51.465,2.343
		c-4.711,0.217-9.446,0.287-14.373,3.603c9.153-0.502,17.488-0.96,25.823-1.418c0.045,0.495,0.09,0.991,0.134,1.486
		c-1.295,0.216-2.586,0.454-3.884,0.643c-6.36,0.928-12.745,1.705-19.073,2.814c-3.953,0.693-4.697,3.265-3.227,7.294
		c6.729-0.056,13.243-0.111,19.756-0.165c0.041,0.415,0.082,0.831,0.124,1.246c-6.62,1.076-13.24,2.153-20.324,3.304
		c0.307,2.999,0.536,5.237,0.799,7.808c3.639,0.134,6.709,0.267,9.78,0.351c2.001,0.055,3.124,0.927,3.055,3.031
		c-4.213,0.035-8.425,0.071-12.896,0.108c0.025,3.027,0.042,5.054,0.064,7.592c3.902-0.033,7.357-0.062,10.965-0.092
		C338.602,455.13,339.16,452.576,339.718,450.022z M326.397,415.458c12.925-0.514,25.006-1.105,37.094-1.443
		c12.146-0.34,24.302-0.329,36.449-0.656c12.121-0.326,24.244-0.727,36.351-1.378c11.942-0.642,23.954-0.413,36.126-1.596
		c0.312-14.148,0.604-27.358,0.917-41.54c-9.124,0.076-17.397,0.415-25.653,0.168c-33.336-1-66.657-0.865-99.966,0.82
		c-5.702,0.288-11.408,0.644-17.085,1.226c-3.686,0.378-3.84,2.644-2.356,5.995c7.651-0.064,15.198-0.127,22.746-0.19
		c0.015,0.306,0.031,0.612,0.046,0.918c-7.929,0.906-15.859,1.812-24.065,2.75c0.03,3.599,0.055,6.534,0.085,10.119
		c8.241,0.151,16.014,0.293,23.787,0.436c-0.018,0.311-0.036,0.622-0.053,0.932c-7.959,0.814-15.918,1.628-23.851,2.439
		c0.026,3.131,0.043,5.196,0.062,7.357c7.93-0.066,15.489-0.13,23.048-0.193c0.011,0.257,0.022,0.515,0.033,0.772
		c-7.676,1.182-15.351,2.365-23.374,3.601C326.623,409.116,326.532,411.665,326.397,415.458z M327.121,327.443
		c-0.747,4.534,0.24,6.38,3.868,6.2c2.14-0.106,4.294,0.098,6.441,0.09c5.283-0.019,10.566-0.08,15.849-0.124
		c0.039,0.249,0.078,0.498,0.117,0.747c-8.591,1.011-17.182,2.022-26.261,3.091c0.231,3.061,0.4,5.297,0.613,8.109
		c6.89-0.058,13.186-0.11,19.482-0.163c0.041,0.497,0.082,0.993,0.123,1.49c-6.459,0.805-12.918,1.61-19.992,2.492
		c0.166,2.622,0.304,4.798,0.467,7.379c8.001-0.443,15.193-0.842,22.385-1.24c0.046,0.455,0.091,0.91,0.137,1.365
		c-7.774,1.042-15.547,2.085-25.169,3.375c2.321,2.292,3.184,3.897,4.317,4.119c3.012,0.588,6.147,0.846,9.221,0.764
		c15.952-0.426,31.898-1.164,47.852-1.473c15.016-0.291,30.094-0.992,45.044,0.001c12.455,0.827,24.724,0.28,37.056-0.738
		c1.555-0.128,3.061-0.858,4.788-1.368c0.008-12.177,0.984-23.977-0.173-35.339C424.091,326.632,375.755,327.036,327.121,327.443z
		 M490.149,352.417c-0.184,3.122-0.392,4.995-0.389,6.867c0.033,28.147,0.142,56.293,0.127,84.44
		c-0.007,13.645,0.429,10.789-10.963,13.659c-0.206,2.206-0.43,4.611-0.635,6.806c7.926-0.066,14.936-0.125,21.981-0.184
		c0.539-2.117,0.882-3.482,1.236-4.845c3.822-14.707,10.291-22.199,26.356-25.709c15.935-3.481,32.002,8.098,32.626,25.434
		c0.118,3.287,0.068,6.581,0.099,10.249c6.415,0.778,12.427,0.754,18.065-1.738c1.2-5.237-0.479-8.719-4.686-10.09
		c-0.925-18.708-1.999-36.776-2.653-54.858c-0.491-13.562-5.348-25.56-12.416-36.762c-4.018-6.367-9.127-11.676-17.475-12.18
		c-3.302-0.199-6.577-1.091-9.871-1.132c-10.966-0.14-21.936-0.04-32.904-0.024C496.049,352.353,493.451,352.39,490.149,352.417z
		 M554.222,460.788c-0.066-10.88-6.705-17.779-14.178-20.547c-8.879-3.288-18.004-1.195-24.321,5.649
		c-10.524,11.401-10.596,25.784-0.943,37.537c1.411,1.718,3.746,2.83,5.849,3.798c6.764,3.113,13.474,0.746,20.146-0.589
		c5.48-1.096,8.665-4.917,10.085-9.968C552.32,471.47,553.128,466.089,554.222,460.788z M387.673,461.335
		c-0.56-3.497-0.609-7.177-1.781-10.455c-2.872-8.028-9.019-12.4-17.592-11.806c-8.481,0.588-17.103,1.322-21.035,11.387
		c-5.121,13.107-1.254,26.932,10.556,32.253c11.207,5.049,18.839,2.577,25.243-5.794
		C386.585,472.318,387.454,467.012,387.673,461.335z M394.805,466.241c25.652-0.214,50.97-0.426,76.643-0.641
		c-0.024-2.855-0.043-5.07-0.065-7.802c-1.843,0.016-3.235,0.001-4.626,0.043c-21.17,0.636-42.34,1.258-63.507,1.956
		c-2.119,0.07-4.243,0.516-6.329,0.96C394.063,461.364,393.919,463.353,394.805,466.241z M480.02,449.764
		c0.562,0.07,1.124,0.141,1.686,0.211c0.556-1.176,1.47-2.313,1.601-3.535c0.459-4.256,0.884-8.541,0.897-12.816
		c0.065-21.191,0.02-42.383-0.049-63.575c-0.016-4.765-0.199-9.534-0.475-14.291c-0.13-2.235-1.214-3.568-4.362-2.13
		c0.025,30.375-3.18,60.942-0.457,91.578C478.998,446.747,479.622,448.245,480.02,449.764z M338.195,463.985
		c-0.173-1.069-0.282-2.356-0.397-2.357c-3.268-0.017-6.536,0.096-9.803,0.187c0.02,0.368,0.041,0.736,0.061,1.104
		C331.239,463.254,334.421,463.588,338.195,463.985z"/>
	<path style="fill:#47C1C1;stroke:#231300;stroke-miterlimit:10;" d="M499.763,386.351c-0.06-7.132-0.081-14.264-0.19-21.396
		c-0.101-6.653,0.992-7.911,7.674-7.822c11.409,0.151,22.832,0.183,34.215,0.844c3.019,0.175,6.553,1.788,8.764,3.886
		c12.488,11.854,16.712,27.148,17.012,43.805c0.12,6.642-0.99,7.761-7.945,7.989c-7.13,0.233-14.286,0.279-21.409-0.052
		c-11.162-0.519-22.291-1.544-33.418,0.601c-3.638,0.701-4.762-0.654-4.83-5.043c-0.117-7.603-0.142-15.207-0.206-22.81
		C499.542,386.353,499.653,386.352,499.763,386.351z M561.56,406.293c-0.022-2.608,0.077-4.706-0.076-6.784
		c-0.811-10.974-4.802-20.542-11.659-29.27c-3.29-4.188-6.822-6.284-11.879-6.51c-6.662-0.298-13.32-0.708-19.982-1.012
		c-4.007-0.183-7.986-0.085-11.183,1.647c-0.288,7.511-0.8,14.394-0.747,21.272c0.054,6.97-0.576,14.041,1.134,21.903
		C525.264,405.056,542.824,410.082,561.56,406.293z"/>
	<path style="fill:#47C1C1;stroke:#231300;stroke-miterlimit:10;" d="M510.065,418.752c0.765,1.838,1.536,3.693,2.394,5.754
		c-3.889,1.975-7.479,0.969-10.882,0.719c-0.924-0.068-2.144-2.35-2.331-3.737c-0.102-0.759,1.577-2.384,2.619-2.546
		C504.413,418.548,507.058,418.777,510.065,418.752z"/>
	<path style="fill:#47C1C1;stroke:#231300;stroke-miterlimit:10;" d="M531.378,471.623c-3.299,0.254-5.646-1.404-7.191-5
		c-1.313-3.057-0.196-5.12,1.77-7.006c3.567-3.423,13.052-0.633,14.375,4.139C541.556,468.17,537.981,471.501,531.378,471.623z"/>
	<path style="fill:#47C1C1;stroke:#231300;stroke-miterlimit:10;" d="M365.889,470.165c-4.83,0.034-7.111-2.292-7.339-7.482
		c-0.177-4.028,3.571-7.183,8.613-7.251c4.296-0.058,7.247,2.841,7.109,6.984C374.12,466.981,370.713,470.131,365.889,470.165z"/>
</g>
<g>
	<path style="fill:#47C1C1;stroke:#231300;stroke-miterlimit:10;" d="M226.842,167.094c-19.459-0.823-38.154-1.741-56.859-2.371
		c-18.545-0.625-37.1-0.979-55.651-1.419c-18.819-0.446-37.637-0.973-56.459-1.241c-18.424-0.262-36.843,1.77-55.577,1.298
		c-0.6-6.728-1.413-12.423-1.558-18.136c-0.405-15.936-0.885-31.882-0.695-47.817c0.343-28.733,1.235-57.459,1.675-86.192
		c0.065-4.235,2.191-6.623,5.577-7.246c5.078-0.934,10.34-0.905,15.528-1.198c3.899-0.22,7.804-0.394,11.709-0.434
		c40.543-0.418,81.086-0.757,121.628-1.22c19.883-0.227,39.763-0.666,59.645-1.01c1.3-0.022,2.61-0.177,3.899-0.069
		c6.3,0.526,9.109,3.137,9.189,9.366c0.123,9.683,0.033,19.378-0.297,29.056c-0.455,13.313-1.61,26.61-1.765,39.923
		c-0.294,25.337-0.096,50.68-0.091,76.021C226.741,158.248,226.8,162.093,226.842,167.094z M8.272,155.941
		c3.808,0.242,6.373,0.535,8.94,0.549c30.094,0.164,60.189,0.264,90.283,0.431c9.952,0.055,19.906,0.108,29.852,0.415
		c22.75,0.702,45.494,1.607,68.244,2.313c4.601,0.143,9.217-0.232,14.34-0.383c0.503-33.68,0.994-66.475,1.497-100.157
		c-71.706-0.664-142.391-5.58-213.479-0.727C4.973,90.917,7.537,122.92,8.272,155.941z M8.8,50.176
		c71.53,0.55,142.063,1.091,212.831,1.635c0.868-7.979,1.572-15.12,0.212-22.532c-2.534-0.118-4.596-0.313-6.656-0.294
		c-18.285,0.172-36.569,0.467-54.854,0.559c-27.445,0.139-54.89,0.051-82.334,0.236c-19.351,0.13-38.703,0.38-58.046,0.911
		C8.14,31.015,6.473,33.232,7.699,44.989C7.884,46.766,8.436,48.504,8.8,50.176z M221.841,7.256
		c-11.598-0.456-22.019-1.176-32.439-1.178c-8.344-0.001-16.685,1.2-25.034,1.301C118.317,7.936,72.263,8.231,26.214,8.869
		c-5.852,0.081-11.943,0.552-17.37,3.609c0.033,3.905,0.063,7.444,0.096,11.452c71.258-0.466,142.046,0.226,213.023-2.05
		C221.918,16.453,221.882,12.15,221.841,7.256z"/>
	<path style="fill:#47C1C1;stroke:#231300;stroke-miterlimit:10;" d="M20.58,94.361c-1.416-10.106-2.593-18.503-3.839-27.403
		c2.487-0.289,4.227-0.688,5.96-0.662c27.472,0.413,54.941,1.003,82.414,1.289c15.371,0.161,30.748-0.266,46.122-0.223
		c9.351,0.026,18.702,0.678,28.05,0.612c8.619-0.061,17.23-0.878,25.851-1.039c7.764-0.144,9.104,1.447,8.411,9.079
		c-0.425,4.674-1.191,9.322-1.5,14.001c-0.198,3.006-2.011,4.223-4.445,4.607c-4.891,0.77-9.826,1.721-14.748,1.751
		c-19.361,0.116-38.728,0.104-58.085-0.248c-18.041-0.328-36.073-1.159-54.109-1.75c-12.544-0.411-25.088-0.926-37.636-1.113
		c-4.663-0.069-9.334,0.727-14.009,1.004C26.306,94.426,23.581,94.336,20.58,94.361z M27.168,86.743
		c1.174,0.071,2.462,0.177,3.753,0.222c22.205,0.787,44.407,2.133,66.615,2.215c33.445,0.124,66.898,3.257,100.348-0.135
		c8.053-0.817,8.867-1.246,9.316-9.256c0.1-1.787-0.013-3.585-0.027-5.278c-60.939-0.467-121.461-0.931-181.858-1.394
		C23.424,78.774,23.424,78.774,27.168,86.743z"/>
	<path style="fill:#47C1C1;stroke:#231300;stroke-miterlimit:10;" d="M20.271,132.734c5.723-0.048,11.151-0.087,16.58-0.14
		c26.395-0.255,52.79-0.525,79.185-0.765c9.4-0.085,18.803,0.014,28.199-0.196c4.931-0.11,9.87-0.542,14.77-1.125
		c4.745-0.565,4.906-0.568,5.776,5.726c-1.628,0.444-3.296,1.154-5.016,1.315c-3.378,0.316-6.79,0.513-10.18,0.435
		c-33.897-0.776-67.763,1.083-101.649,1.109c-7.531,0.006-15.068-0.271-22.59-0.649C22.743,138.314,20.007,137.669,20.271,132.734z"
		/>
	<path style="fill:#47C1C1;stroke:#231300;stroke-miterlimit:10;" d="M23.128,145.315c12.978-0.108,25.972-0.209,38.966-0.328
		c21.7-0.198,43.4-0.399,65.099-0.616c14.642-0.146,29.284-0.286,43.925-0.505c3.988-0.059,6.517,1.157,6.24,5.932
		c-1.139,0.218-2.132,0.568-3.126,0.573c-16.943,0.082-33.888,0.214-50.831,0.14c-11.217-0.049-22.432-0.557-33.648-0.586
		c-15.64-0.039-31.282,0.186-46.923,0.281c-5.213,0.032-10.437,0.202-15.637-0.059C24.158,149.993,24.174,149.665,23.128,145.315z"
		/>
	<path style="fill:#47C1C1;stroke:#231300;stroke-miterlimit:10;" d="M20.604,118.793c18.45-0.154,35.166-0.211,51.88-0.455
		c22.992-0.335,45.984-0.767,68.974-1.261c6.163-0.132,6.407-0.127,7.723,6.065c-1.417,0.304-2.839,0.877-4.259,0.873
		c-26.426-0.076-52.853-0.356-79.279-0.289c-11.476,0.029-22.948,0.85-34.426,1.069c-2.776,0.053-5.656-0.595-8.307-1.47
		C22.018,123.031,21.687,121.036,20.604,118.793z"/>
</g>
<g>
</g>
<g>
</g>
<g>
</g>
<g>
</g>
<g>
</g>
<g>
</g>
<g>
</g>
<g>
</g>
<g>
</g>
<g>
</g>
<g>
</g>
<g>
</g>
<g>
</g>
<g>
</g>
<g>
</g>
</svg>
