<?xml version="1.0" encoding="iso-8859-1"?>
<!-- Generator: Adobe Illustrator 18.1.1, SVG Export Plug-In . SVG Version: 6.00 Build 0)  -->
<svg version="1.1" id="Layer_1" xmlns="http://www.w3.org/2000/svg" xmlns:xlink="http://www.w3.org/1999/xlink" x="0px" y="0px"
	 viewBox="0 0 100.849 155.147" style="enable-background:new 0 0 100.849 155.147;" xml:space="preserve">
<g>
	<g>
		<g>
			<path style="fill:#47C1C1;" d="M65.367,43.241C45.66,31.857,18.464,29.715,10.541,55.761
				C4.168,76.732,34.285,80.569,37.416,97.646c5.537,30.153-46.99,37.322-35.179,49.965c19.169,20.515,57.664-7.447,74.956-37.391
				C94.479,80.295,85.089,54.631,65.367,43.241z"/>
			<path style="fill:#231300;" d="M18.741,155.147c-0.001,0-0.001,0-0.002,0c-6.731,0-12.406-2.421-16.867-7.195
				c-1.438-1.539-2.037-3.058-1.833-4.644c0.514-3.989,6.035-7.477,13.026-11.892c11.994-7.576,26.921-17.005,23.859-33.68
				c-1.31-7.142-7.63-12.036-13.743-16.769C14.894,74.55,6.325,67.915,10.062,55.615c4.105-13.495,14.042-20.927,27.979-20.927
				c8.718,0,18.511,2.883,27.576,8.12c10.312,5.956,17.425,15.495,20.028,26.86c2.888,12.611,0.115,26.72-8.02,40.802
				C64.943,132.432,39.449,155.147,18.741,155.147z M38.042,35.688c-9.522,0-21.939,3.507-27.022,20.218
				c-3.537,11.64,4.386,17.775,12.774,24.27c6.261,4.848,12.735,9.861,14.114,17.379c3.184,17.34-12.707,27.377-24.309,34.706
				c-6.5,4.106-12.115,7.652-12.568,11.175c-0.164,1.272,0.35,2.526,1.571,3.833c4.264,4.563,9.693,6.877,16.136,6.878
				c20.348,0.002,45.48-22.46,58.022-44.178c8.005-13.859,10.74-27.718,7.91-40.078c-2.54-11.091-9.484-20.402-19.553-26.217
				C56.203,38.524,46.587,35.688,38.042,35.688z"/>
		</g>
		<g>
			<path style="fill:#47C1C1;" d="M33.304,0.5c7.691,0,13.914,6.223,13.914,13.903c0,7.691-6.223,13.918-13.914,13.918
				c-7.679,0-13.907-6.226-13.907-13.918C19.397,6.723,25.625,0.5,33.304,0.5z"/>
			<path style="fill:#231300;" d="M33.304,28.82c-7.944,0-14.407-6.468-14.407-14.417C18.897,6.461,25.36,0,33.304,0
				c7.948,0,14.414,6.461,14.414,14.403C47.718,22.353,41.252,28.82,33.304,28.82z M33.304,1c-7.393,0-13.407,6.013-13.407,13.403
				c0,7.398,6.014,13.417,13.407,13.417c7.396,0,13.414-6.019,13.414-13.417C46.718,7.013,40.7,1,33.304,1z"/>
		</g>
		<g>
			<path style="fill:#47C1C1;" d="M61.796,13.642c5.07,0,9.183,4.112,9.183,9.181c0,5.078-4.112,9.183-9.183,9.183
				c-5.07,0-9.178-4.105-9.178-9.183C52.617,17.755,56.726,13.642,61.796,13.642z"/>
			<path style="fill:#231300;" d="M61.796,32.506c-5.336,0-9.678-4.344-9.678-9.683c0-5.338,4.342-9.681,9.678-9.681
				c5.339,0,9.683,4.343,9.683,9.681C71.478,28.162,67.135,32.506,61.796,32.506z M61.796,14.143c-4.785,0-8.678,3.894-8.678,8.681
				c0,4.788,3.893,8.683,8.678,8.683c4.788,0,8.683-3.895,8.683-8.683C70.478,18.037,66.583,14.143,61.796,14.143z"/>
		</g>
		<g>
			<path style="fill:#47C1C1;" d="M80.462,26.842c4.517,0,8.19,3.669,8.19,8.189c0,4.517-3.673,8.189-8.19,8.189
				c-4.521,0-8.189-3.672-8.189-8.189C72.273,30.511,75.942,26.842,80.462,26.842z"/>
			<path style="fill:#231300;" d="M80.462,43.721c-4.791,0-8.689-3.898-8.689-8.689c0-4.792,3.898-8.689,8.689-8.689
				c4.792,0,8.69,3.898,8.69,8.689C89.152,39.823,85.254,43.721,80.462,43.721z M80.462,27.342c-4.239,0-7.688,3.45-7.688,7.689
				s3.449,7.689,7.688,7.689c4.24,0,7.69-3.449,7.69-7.689S84.702,27.342,80.462,27.342z"/>
		</g>
		<g>
			<path style="fill:#47C1C1;" d="M92.093,43.064c3.276,0,5.936,2.656,5.936,5.934c0,3.275-2.66,5.932-5.936,5.932
				c-3.272,0-5.93-2.656-5.93-5.932C86.164,45.721,88.821,43.064,92.093,43.064z"/>
			<path style="fill:#231300;" d="M92.093,55.429c-3.545,0-6.43-2.885-6.43-6.432c0-3.547,2.885-6.434,6.43-6.434
				c3.549,0,6.437,2.886,6.437,6.434C98.53,52.544,95.642,55.429,92.093,55.429z M92.093,43.564c-2.994,0-5.43,2.438-5.43,5.434
				c0,2.995,2.436,5.432,5.43,5.432c2.998,0,5.437-2.437,5.437-5.432C97.53,46.001,95.092,43.564,92.093,43.564z"/>
		</g>
		<g>
			<path style="fill:#47C1C1;" d="M96.551,57.457c2.095,0,3.799,1.691,3.799,3.799c0,2.086-1.704,3.782-3.799,3.782
				c-2.087,0-3.791-1.696-3.791-3.782C92.76,59.148,94.464,57.457,96.551,57.457z"/>
			<path style="fill:#231300;" d="M96.551,65.539c-2.366,0-4.291-1.921-4.291-4.282c0-2.371,1.925-4.299,4.291-4.299
				c2.37,0,4.299,1.929,4.299,4.299C100.849,63.618,98.921,65.539,96.551,65.539z M96.551,57.957c-1.814,0-3.291,1.48-3.291,3.299
				c0,1.81,1.477,3.282,3.291,3.282c1.819,0,3.299-1.472,3.299-3.282C99.849,59.437,98.37,57.957,96.551,57.957z"/>
		</g>
	</g>
	<g>
		<rect x="7.106" y="35.698" style="fill:#231300;" width="3" height="57.459"/>
	</g>
	<g>
		<rect x="86.664" y="35.698" style="fill:#231300;" width="3" height="59.816"/>
	</g>
	<g>
		<rect x="8.606" y="59.748" style="fill:#231300;" width="80.046" height="3"/>
	</g>
</g>
<g>
	<g>
		<path style="fill:#47C1C1;stroke:#231300;stroke-miterlimit:10;" d="M488.802,71.846c-19.707-11.384-46.904-13.526-54.826,12.52
			c-6.373,20.972,23.744,24.808,26.875,41.885c5.537,30.153-46.99,37.322-35.179,49.965c19.169,20.515,57.664-7.447,74.956-37.391
			C517.913,108.9,508.524,83.236,488.802,71.846z"/>
		<path style="fill:#47C1C1;stroke:#231300;stroke-miterlimit:10;" d="M456.739,29.105c7.691,0,13.914,6.223,13.914,13.903
			c0,7.691-6.223,13.918-13.914,13.918c-7.679,0-13.907-6.226-13.907-13.918C442.832,35.328,449.059,29.105,456.739,29.105z"/>
		<path style="fill:#47C1C1;stroke:#231300;stroke-miterlimit:10;" d="M485.23,42.248c5.07,0,9.183,4.112,9.183,9.181
			c0,5.078-4.112,9.183-9.183,9.183c-5.07,0-9.178-4.105-9.178-9.183C476.052,46.36,480.161,42.248,485.23,42.248z"/>
		<path style="fill:#47C1C1;stroke:#231300;stroke-miterlimit:10;" d="M503.897,55.448c4.517,0,8.19,3.669,8.19,8.189
			c0,4.517-3.673,8.189-8.19,8.189c-4.521,0-8.189-3.672-8.189-8.189C495.708,59.116,499.376,55.448,503.897,55.448z"/>
		<path style="fill:#47C1C1;stroke:#231300;stroke-miterlimit:10;" d="M515.528,71.669c3.276,0,5.936,2.656,5.936,5.934
			c0,3.275-2.66,5.932-5.936,5.932c-3.272,0-5.93-2.656-5.93-5.932C509.598,74.326,512.256,71.669,515.528,71.669z"/>
		<path style="fill:#47C1C1;stroke:#231300;stroke-miterlimit:10;" d="M519.985,86.062c2.095,0,3.799,1.691,3.799,3.799
			c0,2.086-1.704,3.782-3.799,3.782c-2.087,0-3.791-1.696-3.791-3.782C516.195,87.753,517.898,86.062,519.985,86.062z"/>
	</g>
	
		<line style="fill:none;stroke:#231300;stroke-width:3;stroke-miterlimit:10;" x1="458.154" y1="138.948" x2="500.628" y2="138.948"/>
	
		<line style="fill:none;stroke:#231300;stroke-width:3;stroke-miterlimit:10;" x1="500.628" y1="127.115" x2="500.628" y2="148.115"/>
	
		<line style="fill:none;stroke:#231300;stroke-width:3;stroke-miterlimit:10;" x1="458.154" y1="127.115" x2="458.154" y2="148.115"/>
</g>
<g>
</g>
<g>
</g>
<g>
</g>
<g>
</g>
<g>
</g>
<g>
</g>
<g>
</g>
<g>
</g>
<g>
</g>
<g>
</g>
<g>
</g>
<g>
</g>
<g>
</g>
<g>
</g>
<g>
</g>
</svg>
