<?xml version="1.0" encoding="iso-8859-1"?>
<!-- Generator: Adobe Illustrator 18.1.1, SVG Export Plug-In . SVG Version: 6.00 Build 0)  -->
<svg version="1.1" id="Layer_1" xmlns="http://www.w3.org/2000/svg" xmlns:xlink="http://www.w3.org/1999/xlink" x="0px" y="0px"
	 viewBox="0 0 135.678 113.462" style="enable-background:new 0 0 135.678 113.462;" xml:space="preserve">
<g>
	<path style="fill:#2B343D;" d="M957.831,390.831c-1.797,0.744-3.068,1.89-2.036,3.927c1.675,3.305,0.591,6.096-1.714,8.321
		c-9.266,8.944-15.884,19.943-23.561,30.109c-5.714,7.567-10.869,15.555-16.488,23.197c-0.85,1.156-2.905,2.099-4.347,2.028
		c-6.015-0.296-11.071-2.933-14.554-7.874c-2.464-3.495-1.481-7.698,1.572-11.532c8.192-10.289,16.346-20.613,24.305-31.082
		c3.795-4.992,7.106-10.351,10.646-15.537c2.537-3.717,5.054-7.362,10.586-5.194c0.678,0.266,2.373-0.514,2.677-1.21
		c0.445-1.018,0.445-2.586-0.04-3.595c-2.378-4.953-5.861-9.55-7.317-14.733c-2.96-10.538-4.301-21.561,1.185-31.703
		c14.177-26.214,42.429-32.686,65.219-16.032c12.302,8.989,18.27,21.19,19.108,36.511c0.73,13.36-6.031,22.631-14.465,31.465
		c-7.218,7.561-16.789,8.408-26.313,9.215C973.473,397.859,965.414,395.218,957.831,390.831z M1001.59,325.819
		c-1.523-2.75-3.868-4.225-6.982-4.509c-1.191-0.867-2.303-1.881-3.587-2.579c-11.188-6.089-32.139-0.968-39.669,7.634
		c-7.266,8.301-12.456,16.998-11.347,28.726c0.778,8.227,3.363,15.551,7.544,22.501c2.348,3.903,4.829,7.85,0.995,12.052
		c1.941,2.25,3.144,1.779,4.177-0.246c0.986-1.932,2.056-3.82,3.213-5.955c1.437,0.795,2.234,1.259,3.053,1.684
		c3.71,1.927,7.245,4.422,11.175,5.649c9.645,3.011,19.214,0.707,28.688-1.51c0.897-0.21,1.778-0.754,2.518-1.334
		c11.511-9.007,19.311-19.836,17.143-35.482c-0.494,6.605-3.097,12.566-6.331,18.11c-5.937,10.179-15.213,16.371-26.829,16.907
		c-14.198,0.655-26.587-4.188-34.848-16.717c-1.562-2.369-4.049-4.8-4.184-7.306c-0.357-6.602-0.558-13.463,0.861-19.847
		c1.668-7.504,6.546-13.252,12.91-18.173c6.517-5.039,13.29-7.338,21.204-6.546c4.503,0.45,8.943,1.523,13.412,2.315
		c2.326,1.508,4.651,3.016,6.977,4.525c3.966,4.587,7.931,9.174,11.897,13.762C1010.622,334,1008.214,328.031,1001.59,325.819z
		 M950.156,357.913c0.564,1.784,0.925,4.953,2.45,7.395c5.748,9.202,14.104,14.567,24.943,16.3
		c7.887,1.26,15.133,0.114,21.944-4.009c8.269-5.005,11.239-13.533,14.44-21.866c0.357-0.931-0.115-2.25-0.388-3.343
		c-3.18-12.706-11.251-22.012-22.925-26.6c-15.252-5.994-25.574-1.098-35.031,10.815
		C950.982,342.406,950.773,349.626,950.156,357.913z M904.361,437.501c2.566,1.399,4.917,2.68,7.267,3.961
		c-2.198,0.582-4.011,0.237-5.791-0.235c-3.1-0.822-3.091-0.854-4.766,1.502c2.557,1.195,5.068,2.368,7.578,3.541
		c-0.109,0.242-0.217,0.483-0.326,0.725c-2.837-0.364-5.674-0.727-8.511-1.091c0.429,2.377,1.235,3.873,2.416,4.961
		c3.541,3.264,6.45,2.837,9.397-1.036c6.346-8.34,12.723-16.656,19.123-24.955c6.032-7.821,12.139-15.585,18.138-23.432
		c0.882-1.154,1.344-2.629,2.077-4.11c-3.102-3.65-7.52-3.777-11.282-5.664c-1.522,1.716-2.86,3.226-4.22,4.759
		c3.033,2.347,6.929,1.915,10.096,5.775c-4.776-1.192-8.312-2.074-12.358-3.083c-0.967,1.264-2.285,2.986-3.845,5.024
		c2.149,1.106,3.644,1.879,5.143,2.644c1.315,0.672,2.635,1.336,3.952,2.004c-0.158,0.329-0.315,0.659-0.473,0.988
		c-3.411-0.895-6.823-1.79-10.497-2.753c-1.071,1.699-2.035,3.229-3.008,4.773c1.245,0.833,2.149,1.437,3.053,2.042
		c-4.641,0.441-7.741,1.656-8.692,6.435c2.999,1.233,5.777,2.376,8.555,3.519c-0.118,0.36-0.236,0.721-0.354,1.081
		c-2.508-0.6-4.995-1.322-7.529-1.773c-4.129-0.735-4.74-0.329-6.178,3.414c1.81,1.025,3.626,2.053,5.911,3.347
		c-3.657,1.72-7.733-3.708-10.068,2.156c2.275,1.283,4.471,2.522,6.642,3.747C911.925,437.892,907.753,431.47,904.361,437.501z"/>
	<path style="fill:#2B343D;" d="M982.46,373.779c13.115-2.563,20.382-9.869,23.544-22.305c1.166,1.456,2.379,2.325,2.261,2.936
		c-0.5,2.582-0.847,5.459-2.257,7.547c-3.534,5.235-8.042,9.641-13.98,12.2C989.362,375.307,986.545,376.243,982.46,373.779z"/>
</g>
<g>
	<path style="fill:#2B343D;" d="M42.421,79.346c0.989,3.668,1.686,6.252,2.417,8.961c1.316,0.11,2.403,0.27,3.491,0.281
		c11.149,0.118,22.298,0.272,33.447,0.293c7.65,0.015,15.301-0.166,22.951-0.256c3.738-0.044,10.337,4.124,11.914,7.519
		c1.953,4.206,0.928,9.826-2.435,13.349c-3.813,3.994-11.726,4.428-15.697,0.86c-3.939-3.54-4.165-10.137-0.507-14.735
		c0.478-0.601,0.948-1.208,1.928-2.457c-11.667-0.193-22.673-0.374-34.003-0.561c0.801,1.494,1.55,2.677,2.098,3.947
		c3.031,7.023-0.713,14.657-8.072,16.544c-6.983,1.791-13.496-3.127-13.302-10.349c0.084-3.117,0.994-6.212,1.536-9.354
		c-0.198-0.121-0.458-0.416-0.733-0.43c-6.138-0.313-6.032-0.338-7.744-6.328c-3.893-13.627-8.045-27.182-11.81-40.844
		c-2.534-9.196-4.578-18.527-6.86-27.794c-0.685-2.783-1.275-5.605-2.197-8.311c-0.767-2.25-1.948-4.364-4.827-5.052
		c-0.161,0.524-0.372,0.909-0.385,1.301c-0.166,5.077-3.521,8.28-8.433,7.985c-2.642-0.159-3.838-2.125-4.759-4.173
		c-1.043-2.319-0.097-4.41,1.443-6.159c2.507-2.848,5.93-3.677,9.51-3.577c7.701,0.214,9.845,2.027,12.037,9.663
		c0.088,0.306,0.23,0.598,0.313,0.905c1.813,6.701,1.812,6.553,8.481,6.547c13.331-0.012,26.662,0.198,39.993,0.233
		c9.417,0.024,18.834-0.191,28.25-0.113c10.006,0.083,20.011,0.386,30.016,0.589c0.478,0.01,0.964-0.069,1.435-0.015
		c3.255,0.376,4.077,1.411,3.66,4.671c-1.276,9.977-3.317,19.776-6.119,29.455c-2.12,7.323-3.57,14.84-5.345,22.264
		c-0.364,1.522-0.842,3.017-1.391,4.959C96.153,80.369,69.613,77.53,42.421,79.346z M26.053,21.759
		c0.519,2.806,0.712,4.841,1.28,6.766c4.187,14.2,8.432,28.384,12.699,42.561c0.971,3.228,1.713,3.843,5.127,3.783
		c5.088-0.09,10.179-0.676,15.258-0.565c10.491,0.229,20.971,0.919,31.461,1.149c7.646,0.168,15.302-0.029,22.951-0.2
		c3.878-0.087,3.792-0.242,4.553-3.924c0.676-3.27,1.402-6.545,2.384-9.732c3.884-12.599,6.875-25.401,9.43-39.403
		C96.229,21.1,61.64,20.425,26.053,21.759z M53.953,94.412c-2.617,3.31-4.163,6.565-2.036,10.648c1.927,3.7,4.673,5.202,8.052,4.004
		c3.555-1.261,5.548-4.627,4.676-8.316C63.652,96.548,61.054,93.125,53.953,94.412z M112.994,101.566
		c-0.042-4.292-1.982-6.485-5.78-6.536c-3.622-0.048-7.196,3.616-7.208,7.389c-0.011,3.557,2.832,6.496,6.205,6.414
		C110.805,108.721,113.041,106.326,112.994,101.566z M3.558,6.936c2.103,2.945,3.778,3.773,6.526,1.445
		c-1.012-1.218-1.742-2.804-2.907-3.25C6.399,4.834,5.001,6.162,3.558,6.936z"/>
	<path style="fill:#2B343D;" d="M34.479,30.949c1.167-0.288,2.053-0.708,2.931-0.694c16.689,0.259,33.376,0.573,50.064,0.866
		c7.629,0.134,15.258,0.253,22.887,0.36c1.113,0.016,2.235-0.169,3.341-0.09c1.701,0.121,2.771,1.221,2.458,2.824
		c-0.142,0.727-1.44,1.474-2.351,1.739c-1.027,0.298-2.211,0.096-3.324,0.056c-11.45-0.411-22.896-0.932-34.348-1.219
		c-8.705-0.219-17.418-0.18-26.127-0.184c-4.088-0.002-8.176,0.141-12.263,0.268C35.411,34.948,34.805,33.476,34.479,30.949z"/>
	<path style="fill:#2B343D;" d="M114.999,51.143c-25.444-0.344-50.4-0.682-75.907-1.027c-0.197-0.441-0.677-1.514-1.251-2.796
		c3.654-1.638,7.204-1.038,10.615-1.109c8.289-0.171,16.586-0.185,24.876-0.049c9.873,0.163,19.743,0.584,29.615,0.816
		c2.849,0.067,5.706-0.132,8.558-0.212C114.186,46.69,115.175,48.071,114.999,51.143z"/>
	<path style="fill:#2B343D;" d="M42.66,60.276c2.494,0.129,4.491,0.312,6.488,0.323c18.324,0.098,36.648,0.161,54.972,0.251
		c2.687,0.013,5.376,0.068,8.06,0.191c1.756,0.08,2.672,1.149,2.389,2.861c-0.287,1.734-1.583,1.355-2.954,1.331
		c-16.9-0.297-33.801-0.5-50.703-0.68c-4.621-0.049-9.247-0.022-13.866,0.129C44.484,64.765,43.239,63.609,42.66,60.276z"/>
	<path style="fill:#2B343D;" d="M53.362,102.238c1.048-2.172,2.014-4.62,4.399-3.908c1.381,0.412,2.577,2.595,3.086,4.223
		c0.213,0.68-1.383,2.49-2.489,2.906C55.73,106.447,54.185,104.877,53.362,102.238z"/>
	<path style="fill:#2B343D;" d="M109.041,101.866c-0.014,2.342-1.794,3.969-3.608,4.048c-1.76,0.076-2.62-0.948-2.729-2.592
		c-0.14-2.113,1.504-4.093,3.375-3.637C107.333,99.988,108.337,101.316,109.041,101.866z"/>
</g>
<path style="fill:#2B343D;" d="M978.871,554.525c14.573,1.615,27.346,2.674,39.997,4.549c9.331,1.382,10.33,4.198,11.417,13.639
	c2.061,17.907-2.681,34.746-6.911,51.653c-2.149,8.59-6.978,15.223-17.203,15.894c-10.771,0.708-21.489,2.4-32.264,2.827
	c-12.163,0.482-24.363,0.022-36.547-0.004c-6.525-0.014-12.85-0.672-18.249-4.909c-5.232-4.105-11.544-3.27-17.553-3.618
	c-9.313-0.541-12.402-2.932-14.473-12.093c-2.666-11.79,0.298-22.788,5.207-33.403c1.112-2.405,2.868-4.513,4.13-6.454
	c6.63-1.281,13.23-1.604,19.087-3.859c20.643-7.949,35.094-21.317,36.205-45.122c0.332-7.114,1.82-13.39,9.47-16.326
	c7.651-2.937,13.583-0.488,15.536,7.495c1.348,5.509,1.649,11.302,2.092,16.994C979.119,545.723,978.871,549.701,978.871,554.525z
	 M968.286,526.455c-0.764-0.125-1.527-0.249-2.291-0.374c-4.206,4.691-4.182,4.693-5.045,13.249
	c-1.115,11.047-4.569,20.852-13.146,28.68c-11.222,10.242-23.258,18.593-38.869,19.988c-4.016,0.359-7.326,1.51-9.336,5.003
	c-5.652,9.823-7.77,19.943-2.305,30.794c10.96,1.618,21.822,2.294,30.935,9.21c1.867,1.417,5.185,1.155,7.85,1.248
	c13.52,0.475,27.059,1.373,40.563,1.031c12.12-0.307,25.144,1.704,35.82-9.387c-10.204-0.451-20.023,2.443-29.147-2.833
	c-0.186-4.664,2.64-5.501,6.468-5.255c4.381,0.28,8.763,0.572,13.148,0.727c8.631,0.306,13.889-3.742,15.73-12.324
	c-11.032-2.578-22.852,3.537-34.405-2.712c4.539-6.197,10.007-4.394,14.751-5.069c5.621-0.8,11.283-1.474,16.808-2.728
	c4.253-0.965,5.623-4.123,4.608-8.8c-10.432-0.83-21.459,3.827-33.26-4.606c5.262-1.393,8.213-2.574,11.253-2.881
	c4.015-0.405,8.114,0.089,12.151-0.182c8.935-0.6,10.557-3.288,7.642-12.971c-12.863-0.877-25.94-2.194-39.042-2.51
	c-8.385-0.202-10.601-1.915-10.479-10.331C968.818,544.437,968.441,535.445,968.286,526.455z"/>
<g>
</g>
<g>
</g>
<g>
</g>
<g>
</g>
<g>
</g>
<g>
</g>
<g>
</g>
<g>
</g>
<g>
</g>
<g>
</g>
<g>
</g>
<g>
</g>
<g>
</g>
<g>
</g>
<g>
</g>
</svg>
