<?xml version="1.0" encoding="iso-8859-1"?>
<!-- Generator: Adobe Illustrator 18.1.1, SVG Export Plug-In . SVG Version: 6.00 Build 0)  -->
<svg version="1.1" id="Layer_1" xmlns="http://www.w3.org/2000/svg" xmlns:xlink="http://www.w3.org/1999/xlink" x="0px" y="0px"
	 viewBox="0 0 144.7 127.206" style="enable-background:new 0 0 144.7 127.206;" xml:space="preserve">
<path style="fill:#2B343D;" d="M92.789,38.425c14.573,1.615,27.345,2.674,39.997,4.549c9.331,1.382,10.33,4.198,11.417,13.639
	c2.061,17.907-2.681,34.746-6.911,51.653c-2.149,8.59-6.978,15.223-17.203,15.894c-10.771,0.708-21.489,2.4-32.264,2.827
	c-12.163,0.482-24.363,0.022-36.547-0.004c-6.525-0.014-12.85-0.672-18.249-4.909c-5.232-4.105-11.544-3.27-17.553-3.618
	c-9.313-0.541-12.402-2.932-14.473-12.093c-2.666-11.79,0.298-22.788,5.207-33.403c1.112-2.405,2.868-4.513,4.13-6.454
	c6.63-1.281,13.23-1.604,19.087-3.859C50.07,54.698,64.52,41.33,65.632,17.524c0.332-7.114,1.82-13.39,9.47-16.326
	c7.651-2.937,13.583-0.488,15.536,7.495c1.348,5.509,1.649,11.302,2.092,16.994C93.037,29.623,92.789,33.602,92.789,38.425z
	 M82.204,10.356c-0.764-0.124-1.527-0.249-2.291-0.374c-4.206,4.691-4.182,4.693-5.045,13.249
	c-1.115,11.047-4.569,20.852-13.146,28.68C50.5,62.153,38.463,70.504,22.852,71.899c-4.016,0.359-7.326,1.51-9.336,5.003
	c-5.652,9.823-7.77,19.942-2.305,30.794c10.96,1.618,21.822,2.294,30.935,9.21c1.867,1.417,5.185,1.155,7.85,1.248
	c13.52,0.475,27.059,1.373,40.563,1.031c12.12-0.307,25.144,1.704,35.82-9.387c-10.204-0.451-20.023,2.443-29.147-2.833
	c-0.186-4.664,2.64-5.501,6.468-5.255c4.381,0.28,8.763,0.572,13.148,0.727c8.631,0.306,13.889-3.742,15.73-12.324
	c-11.032-2.578-22.852,3.537-34.405-2.712c4.539-6.197,10.007-4.394,14.751-5.069c5.621-0.8,11.283-1.474,16.808-2.728
	c4.252-0.965,5.623-4.123,4.608-8.8c-10.432-0.83-21.459,3.827-33.26-4.606c5.262-1.393,8.213-2.574,11.253-2.881
	c4.015-0.405,8.114,0.089,12.151-0.183c8.935-0.6,10.557-3.288,7.642-12.971c-12.863-0.877-25.94-2.194-39.042-2.51
	c-8.385-0.202-10.601-1.915-10.479-10.331C82.736,28.337,82.36,19.345,82.204,10.356z"/>
<g>
</g>
<g>
</g>
<g>
</g>
<g>
</g>
<g>
</g>
<g>
</g>
<g>
</g>
<g>
</g>
<g>
</g>
<g>
</g>
<g>
</g>
<g>
</g>
<g>
</g>
<g>
</g>
<g>
</g>
</svg>
