<?xml version="1.0" encoding="iso-8859-1"?>
<!-- Generator: Adobe Illustrator 18.1.1, SVG Export Plug-In . SVG Version: 6.00 Build 0)  -->
<svg version="1.1" id="&#x421;&#x43B;&#x43E;&#x439;_1"
	 xmlns="http://www.w3.org/2000/svg" xmlns:xlink="http://www.w3.org/1999/xlink" x="0px" y="0px" viewBox="0 0 2000 1600"
	 style="enable-background:new 0 0 2000 1600;" xml:space="preserve">
<g>
	<g>
		<path style="fill:#FFFFFF;stroke:#7F7769;stroke-miterlimit:10;" d="M1985.904,810.759
			c-219.562-44.037-30.139-295.045-99.014-457.984c-36.198-85.602-112.754-109.178-177.315-112.314
			c-7.703-20.435-73.218-176.619-270.425-151.913c-210.967,26.422-387.482,140.921-439.135-8.808
			c-51.664,149.729-228.198,35.23-439.15,8.808C363.629,63.842,298.123,220.026,290.441,240.461
			c-64.551,3.135-141.127,26.712-177.31,112.314c-68.88,162.938,120.522,413.946-99.035,457.984
			c219.557,44.043,30.155,295.057,99.035,457.989c36.183,85.602,112.759,109.178,177.31,112.314
			c7.682,20.435,73.188,176.619,270.425,151.919c210.952-26.422,387.486-140.926,439.15,8.803
			c51.653-149.729,228.168-35.225,439.135-8.803c197.206,24.7,262.722-131.483,270.425-151.919
			c64.561-3.135,141.117-26.712,177.315-112.314C1955.764,1105.816,1766.342,854.802,1985.904,810.759z"/>
		<path style="fill:none;stroke:#7F7769;stroke-miterlimit:10;" d="M1480.236,1493.532c-11.614,0-23.752-0.787-36.085-2.327
			c-59.684-7.473-115.969-22.174-170.404-36.391c-63.032-16.459-117.478-30.676-166.05-30.676
			c-45.133,0-81.126,13.156-107.682,39.237c-26.57-26.081-62.574-39.237-107.707-39.237c-48.567,0-103.023,14.217-166.065,30.682
			c-54.426,14.212-110.701,28.912-170.379,36.386c-12.338,1.545-24.481,2.327-36.085,2.327
			c-136.07,0-182.922-106.273-190.937-127.581l-9.632-25.624l-26.823-1.308c-70.949-3.44-118.556-32.704-141.497-86.973
			c-22.299-52.756-10.515-123.474,0.873-191.866c13.761-82.64,31.413-188.63-38.078-249.422
			c69.491-60.787,51.838-166.772,38.078-249.417c-11.388-68.391-23.172-139.109-0.873-191.866
			c22.942-54.269,70.548-83.533,141.497-86.972l26.823-1.308l9.632-25.624c8.015-21.302,54.867-127.581,190.937-127.581
			c11.604,0,23.747,0.782,36.085,2.327c59.679,7.479,115.953,22.174,170.379,36.386c63.041,16.465,117.498,30.687,166.075,30.682
			c45.122,0,81.126-13.156,107.696-39.237c26.545,26.087,62.559,39.242,107.682,39.237c48.572,0,103.018-14.216,166.05-30.676
			c54.435-14.217,110.721-28.912,170.404-36.391c12.343-1.545,24.471-2.327,36.074-2.327c136.014,0,182.922,106.289,190.953,127.597
			l9.643,25.613l26.802,1.303c70.949,3.44,118.556,32.704,141.507,86.978c22.295,52.751,10.516,123.469-0.873,191.86
			c-13.77,82.645-31.433,188.63,38.058,249.417c-69.491,60.787-51.828,166.782-38.058,249.422
			c11.388,68.391,23.168,139.109,0.863,191.866c-22.942,54.269-70.548,83.533-141.497,86.973l-26.802,1.302l-9.643,25.615
			c-8.031,21.307-54.949,127.586-190.912,127.596C1480.247,1493.532,1480.247,1493.532,1480.236,1493.532z"/>
		<g>
			<g>
				<polyline style="fill:none;stroke:#7F7769;stroke-width:1.4673;stroke-linecap:round;stroke-linejoin:round;" points="
					1000.025,1422.876 1000.015,1422.883 1000.005,1422.876 				"/>
				
					<path style="fill:none;stroke:#7F7769;stroke-width:1.4673;stroke-linecap:round;stroke-linejoin:round;stroke-dasharray:0.0293,3.9108;" d="
					M996.758,1420.7c-26.072-17.009-60.085-28.126-104.45-28.126c-52.444,0-111.341,15.378-173.7,31.665
					c-53.481,13.965-108.78,28.402-166.492,35.634c-11.101,1.392-21.981,2.096-32.337,2.096
					c-115.902,0-155.396-89.42-162.138-107.345l-16.162-43.009"/>
				<polyline style="fill:none;stroke:#7F7769;stroke-width:1.4673;stroke-linecap:round;stroke-linejoin:round;" points="
					340.79,1309.78 340.785,1309.766 340.77,1309.765 				"/>
				
					<path style="fill:none;stroke:#7F7769;stroke-width:1.4673;stroke-linecap:round;stroke-linejoin:round;stroke-dasharray:0.0294,3.9215;" d="
					M336.853,1309.575l-42.998-2.083c-78.614-3.818-103.075-40.619-114.638-67.972c-18.664-44.158-7.676-110.186,2.962-174.035
					c12.178-73.12,29.959-179.844-24.15-253.143"/>
				<polyline style="fill:none;stroke:#7F7769;stroke-width:1.4673;stroke-linecap:round;stroke-linejoin:round;" points="
					156.855,810.771 156.846,810.759 156.855,810.746 				"/>
				
					<path style="fill:none;stroke:#7F7769;stroke-width:1.4673;stroke-linecap:round;stroke-linejoin:round;stroke-dasharray:0.0294,3.9215;" d="
					M159.185,807.591c52.699-73.241,35.086-178.959,22.995-251.548c-10.639-63.854-21.626-129.876-2.962-174.035
					c11.563-27.358,36.024-64.159,114.638-67.976l44.957-2.184"/>
				<polyline style="fill:none;stroke:#7F7769;stroke-width:1.4673;stroke-linecap:round;stroke-linejoin:round;" points="
					340.77,311.752 340.785,311.751 340.79,311.738 				"/>
				
					<path style="fill:none;stroke:#7F7769;stroke-width:1.4673;stroke-linecap:round;stroke-linejoin:round;stroke-dasharray:0.0293,3.9107;" d="
					M342.166,308.077l15.475-41.177c6.742-17.925,46.237-107.346,162.138-107.346c10.357,0,21.236,0.705,32.337,2.102
					c57.712,7.226,113.011,21.669,166.492,35.629c62.359,16.286,121.256,31.669,173.711,31.664
					c45.285,0,79.789-11.592,106.059-29.199"/>
				<polyline style="fill:none;stroke:#7F7769;stroke-width:1.4673;stroke-linecap:round;stroke-linejoin:round;" points="
					999.994,198.652 1000.005,198.645 1000.015,198.652 				"/>
				
					<path style="fill:none;stroke:#7F7769;stroke-width:1.4673;stroke-linecap:round;stroke-linejoin:round;stroke-dasharray:0.0293,3.9107;" d="
					M1003.262,200.828c26.068,17.004,60.075,28.126,104.435,28.121c52.453,0,111.346-15.383,173.69-31.659
					c53.482-13.965,108.79-28.408,166.512-35.634c11.101-1.397,21.986-2.102,32.327-2.102c115.855,0,155.401,89.448,162.147,107.378
					l16.187,42.977"/>
				<polyline style="fill:none;stroke:#7F7769;stroke-width:1.4673;stroke-linecap:round;stroke-linejoin:round;" points="
					1659.251,311.743 1659.256,311.757 1659.271,311.758 				"/>
				
					<path style="fill:none;stroke:#7F7769;stroke-width:1.4673;stroke-linecap:round;stroke-linejoin:round;stroke-dasharray:0.0294,3.9213;" d="
					M1663.187,311.948l42.968,2.084c78.61,3.817,103.08,40.624,114.643,67.982c18.669,44.154,7.671,110.175-2.968,174.03
					c-12.184,73.115-29.975,179.839,24.14,253.133"/>
				<polyline style="fill:none;stroke:#7F7769;stroke-width:1.4673;stroke-linecap:round;stroke-linejoin:round;" points="
					1843.145,810.746 1843.154,810.759 1843.145,810.771 				"/>
				
					<path style="fill:none;stroke:#7F7769;stroke-width:1.4673;stroke-linecap:round;stroke-linejoin:round;stroke-dasharray:0.0294,3.9213;" d="
					M1840.815,813.926c-52.704,73.246-35.081,178.964-22.985,251.559c10.638,63.849,21.637,129.877,2.968,174.03
					c-11.563,27.353-36.033,64.159-114.643,67.977l-44.926,2.178"/>
				<polyline style="fill:none;stroke:#7F7769;stroke-width:1.4673;stroke-linecap:round;stroke-linejoin:round;" points="
					1659.271,1309.765 1659.256,1309.766 1659.251,1309.78 				"/>
				
					<path style="fill:none;stroke:#7F7769;stroke-width:1.4673;stroke-linecap:round;stroke-linejoin:round;stroke-dasharray:0.0293,3.9106;" d="
					M1657.873,1313.439l-15.499,41.152c-6.747,17.93-46.302,107.377-162.117,107.377c-0.009,0-0.009,0-0.02,0
					c-10.362,0-21.247-0.704-32.337-2.096c-57.723-7.231-113.031-21.669-166.512-35.639
					c-62.343-16.281-121.236-31.659-173.69-31.659c-45.281,0-79.789,11.588-106.055,29.204"/>
			</g>
		</g>
	</g>
	<g>
		<path d="M760.032,1199.088c0,3.162-0.646,6.12-1.94,8.878c-1.294,2.757-3.396,5.146-6.308,7.168
			c-2.911,2.023-6.685,3.622-11.321,4.798c-4.636,1.175-10.333,1.765-17.089,1.765c-3.811,0-7.53-0.295-11.159-0.883
			c-3.63-0.589-7.08-1.434-10.351-2.536c-3.271-1.104-6.29-2.443-9.057-4.025c-2.768-1.58-5.158-3.326-7.17-5.239l5.391-6.616
			c4.098,3.603,8.877,6.341,14.34,8.216c5.462,1.875,11.465,2.813,18.006,2.813c7.26,0,12.399-1.029,15.418-3.088
			c3.02-2.058,4.528-4.889,4.528-8.492c0-2.793-1.186-5.146-3.558-7.059c-2.372-1.911-6.398-3.786-12.076-5.624l-20.485-6.617
			c-6.757-2.206-11.859-5.019-15.31-8.438c-3.45-3.418-5.176-7.774-5.176-13.068c0-2.719,0.629-5.349,1.887-7.886
			c1.257-2.536,3.217-4.778,5.876-6.727c2.659-1.947,6.055-3.491,10.189-4.633c4.132-1.139,9.11-1.709,14.933-1.709
			c3.521,0,7.025,0.295,10.513,0.882c3.485,0.59,6.827,1.435,10.026,2.537c3.197,1.103,6.182,2.445,8.949,4.025
			c2.767,1.582,5.156,3.327,7.17,5.238l-5.391,6.617c-4.098-3.602-8.698-6.342-13.801-8.216c-5.104-1.875-10.927-2.813-17.467-2.813
			c-5.391,0-9.435,0.956-12.13,2.867c-2.695,1.913-4.043,4.265-4.043,7.059c0,1.544,0.251,2.886,0.755,4.025
			c0.502,1.141,1.348,2.205,2.533,3.198c1.187,0.992,2.75,1.912,4.69,2.757c1.94,0.846,4.349,1.747,7.224,2.702l20.378,6.617
			c6.54,2.133,11.68,4.927,15.418,8.382C758.162,1189.42,760.032,1193.794,760.032,1199.088z"/>
		<path d="M884.021,1142.292v77.199h-15.633v-33.637h-44.206v33.637h-15.634v-77.199h15.634v35.291h44.206v-35.291H884.021z"/>
		<path d="M977.823,1140.085c6.469,0,12.345,0.882,17.628,2.646s9.812,4.376,13.585,7.83c3.773,3.457,6.701,7.721,8.787,12.794
			c2.084,5.072,3.127,10.918,3.127,17.535s-1.043,12.462-3.127,17.535c-2.086,5.073-5.014,9.338-8.787,12.793
			c-3.773,3.457-8.302,6.065-13.585,7.83s-11.159,2.647-17.628,2.647c-6.47,0-12.364-0.883-17.683-2.647
			c-5.32-1.765-9.865-4.373-13.639-7.83c-3.773-3.455-6.685-7.72-8.733-12.793s-3.073-10.918-3.073-17.535
			s1.024-12.463,3.073-17.535c2.049-5.073,4.96-9.337,8.733-12.794c3.773-3.454,8.318-6.065,13.639-7.83
			C965.459,1140.967,971.354,1140.085,977.823,1140.085z M977.823,1147.805c-3.666,0-7.1,0.662-10.297,1.985
			c-3.199,1.323-5.984,3.347-8.356,6.065c-2.372,2.721-4.259,6.159-5.66,10.312c-1.401,4.155-2.103,9.063-2.103,14.724
			c0,5.662,0.701,10.57,2.103,14.723c1.401,4.155,3.288,7.593,5.66,10.312c2.372,2.722,5.157,4.742,8.356,6.066
			c3.197,1.323,6.631,1.984,10.297,1.984c3.665,0,7.097-0.661,10.296-1.984c3.198-1.324,5.984-3.345,8.356-6.066
			c2.372-2.719,4.259-6.156,5.66-10.312c1.401-4.152,2.103-9.061,2.103-14.723c0-5.661-0.701-10.568-2.103-14.724
			c-1.401-4.152-3.288-7.591-5.66-10.312c-2.372-2.719-5.158-4.742-8.356-6.065C984.92,1148.467,981.488,1147.805,977.823,1147.805z
			"/>
		<path d="M1087.256,1150.562v25.366h39.354v8.271h-39.354v27.02h50.136v8.271h-65.77v-77.199h65.77v8.271H1087.256z"/>
		<path d="M1255.989,1199.088c0,3.162-0.646,6.12-1.94,8.878c-1.294,2.757-3.396,5.146-6.308,7.168
			c-2.911,2.023-6.685,3.622-11.321,4.798c-4.636,1.175-10.333,1.765-17.089,1.765c-3.811,0-7.53-0.295-11.159-0.883
			c-3.63-0.589-7.08-1.434-10.351-2.536c-3.271-1.104-6.29-2.443-9.057-4.025c-2.768-1.58-5.158-3.326-7.17-5.239l5.391-6.616
			c4.098,3.603,8.877,6.341,14.34,8.216c5.462,1.875,11.465,2.813,18.006,2.813c7.26,0,12.399-1.029,15.418-3.088
			c3.02-2.058,4.528-4.889,4.528-8.492c0-2.793-1.186-5.146-3.558-7.059c-2.372-1.911-6.398-3.786-12.076-5.624l-20.485-6.617
			c-6.757-2.206-11.859-5.019-15.31-8.438c-3.45-3.418-5.176-7.774-5.176-13.068c0-2.719,0.629-5.349,1.887-7.886
			c1.257-2.536,3.217-4.778,5.876-6.727c2.659-1.947,6.055-3.491,10.189-4.633c4.132-1.139,9.11-1.709,14.933-1.709
			c3.521,0,7.025,0.295,10.513,0.882c3.485,0.59,6.827,1.435,10.026,2.537c3.197,1.103,6.182,2.445,8.949,4.025
			c2.767,1.582,5.156,3.327,7.17,5.238l-5.391,6.617c-4.098-3.602-8.698-6.342-13.801-8.216c-5.104-1.875-10.927-2.813-17.467-2.813
			c-5.391,0-9.435,0.956-12.13,2.867c-2.695,1.913-4.043,4.265-4.043,7.059c0,1.544,0.251,2.886,0.755,4.025
			c0.502,1.141,1.348,2.205,2.533,3.198c1.187,0.992,2.75,1.912,4.69,2.757c1.94,0.846,4.349,1.747,7.224,2.702l20.378,6.617
			c6.54,2.133,11.68,4.927,15.418,8.382C1254.119,1189.42,1255.989,1193.794,1255.989,1199.088z"/>
	</g>
	<path style="fill:#47C1C2;stroke:#000000;stroke-miterlimit:10;" d="M617.128,263.575c-5.956,1.977-9.125,8.591-7.073,14.772
		c1.036,3.12,3.206,5.532,5.868,6.902c-7.837,15.961-23.325,44.424-33.698,43.479c-9.16-0.843-16.303-16.244-20.286-27.322
		c0.067-0.022,0.125-0.034,0.191-0.056c5.957-1.977,9.121-8.593,7.07-14.772c-2.053-6.185-8.543-9.591-14.5-7.614
		c-5.956,1.977-9.122,8.588-7.07,14.773c1.62,4.879,6.011,8.023,10.725,8.158c-1.135,12.696-6.431,30.857-27.633,28.686
		c-16.426-1.682-31.756-26.578-40.961-45.055c4.656-2.639,6.92-8.431,5.107-13.893c-2.054-6.188-8.544-9.595-14.499-7.618
		c-5.956,1.977-9.125,8.589-7.072,14.778c1.813,5.462,7.096,8.749,12.408,8.08c3.669,20.315,6.266,49.437-5.895,60.607
		c-15.697,14.417-30.797,3.026-39.3-6.471c3.697-2.927,5.338-8.072,3.718-12.951c-2.053-6.185-8.548-9.589-14.501-7.614
		c-5.962,1.979-9.124,8.589-7.071,14.774c2.051,6.178,8.539,9.591,14.501,7.612c0.061-0.02,0.119-0.047,0.184-0.068
		c3.435,11.26,6.915,27.877,0.075,34.031c-7.742,6.958-37.177-6.594-53.001-14.702c1.311-2.689,1.614-5.914,0.576-9.041
		c-2.052-6.182-8.551-9.587-14.505-7.611c-5.956,1.977-9.123,8.59-7.071,14.772c2.052,6.183,8.544,9.587,14.5,7.61
		c1.683-0.559,3.124-1.489,4.311-2.669c16.844,18.213,54.751,60.973,59.407,81.85c0,0-3.24,7.927,3.418,10.297
		c6.655,2.356,90.621-26.656,90.621-26.656s84.652-26.953,88.573-32.82c3.919-5.881-3.418-10.297-3.418-10.297
		c-8.754-19.516-3.932-76.459-1.322-101.128c1.656,0.235,3.367,0.12,5.05-0.438c5.959-1.978,9.126-8.588,7.074-14.771
		C629.579,265.005,623.087,261.598,617.128,263.575z"/>
	<g>
		<path style="fill:#47C1C2;stroke:#000000;stroke-miterlimit:10;" d="M524.475,895.452
			c-16.643,57.301-46.428,169.554-121.402,174.015c-5.811,0.346-11.84-0.372-16.93-3.196c-8.856-4.915-13.369-15.486-13.723-25.608
			c-0.383-10.963,2.461-23.857,8.286-33.173c4.139-6.62,16.119-13.714,15.727-22.419c-0.437-9.678-26.978,2.143-31.19,4.383
			c-14.38,7.65-27.212,18.332-34.543,33.151c-14.087,28.476,5.775,59.02,33.314,68.673
			c120.925,42.385,182.046-107.02,207.838-195.924 M758.232,414.59c-16.987-8.253-36.191-10.788-54.714-13.16
			c-156.098-19.99-286.403,58.299-392.847,164.529c-35.979,35.907-89.874,98.233-48.375,149.178
			c18.985,23.306,55.379,26.781,82.459,13.735c27.08-13.046,45.799-39.126,57.92-66.632c6.347-14.403,11.205-29.798,12.19-45.588
			c0.657-10.526,0.976-33.4-10.149-39.408c-2.262-1.222-4.868-1.628-7.429-1.857c-23.257-2.078-40.204,7.265-34.285,32.058
			c7.568,31.704,4.387,66.09-19.06,90.574c-13.005,13.581-33.504,20.854-50.143,8.53c-9.46-7.007-14.746-18.733-15.592-30.475
			c-3.392-47.073,47.237-95.267,76.695-126.396c76.391-80.724,189.856-132.589,301.49-132.088
			c28.814,0.122,58.024,4.992,85.801,12.414 M788.606,427.715c11.385,7.921,23.236,15.415,33.553,24.737
			c10.097,9.123,19.266,19.278,27.303,30.26c15.956,21.803,27.534,47.014,32.356,73.666c3.745,20.697,3.555,42.087-0.449,62.731
			c-11.158,57.528-50.118,100.815-97.625,132.657c-6.882,4.613-13.905,9.015-21.063,13.188
			c-25.844,15.066-53.643,27.473-82.862,34.254c-14.338,3.328-29.047,5.259-43.782,5.114c-7.185-0.071-14.52-0.491-21.599-1.788
			c-5.73-1.05-10.661-3.013-12.87,4.129c-5.69,18.396-13.424,36.326-18.078,55.011c-0.324,1.302-0.682,2.693-1.685,3.584
			c-2.306,2.049-8.257,1.083-11.227,1.229c-5.157,0.253-10.304,0.698-15.427,1.335c-4.297,0.534-22.563,4.136-18.989-5.305
			c5.881-15.534,11.762-31.068,17.643-46.602c2.569-6.786,5.272-13.495,7.934-20.235c0.64-1.62,5.186-11.236,2.787-12.567
			c-42.215-22.654-64.501-76.899-50.406-122.686c10.217-33.19,35.985-58.899,60.841-83.151c5.289-5.161,15.35-9.722,18.598-3.083
			c-17.384,17.31-34.952,34.852-47.607,55.87s-20.089,46.21-15.342,70.279s23.638,46.11,47.902,49.734
			c19.92-60.753,39.919-121.708,67.555-179.362c27.636-57.654,63.306-112.263,110.805-155.061
			c60.781-54.765,140.253-88.394,221.882-93.89c-58.229,17.001-115.789,40.673-161.788,80.217
			c-7.321,6.294-14.315,12.966-20.986,19.945c-21.251,22.233-38.984,48.016-54.42,74.553
			c-16.025,27.549-30.508,55.973-43.922,84.877c-13.462,29.006-25.851,58.498-37.694,88.198
			c-5.929,14.868-11.721,29.791-17.443,44.74c-5.504,14.379-10.782,28.845-15.83,43.39c-0.133,0.382-0.253,0.844,0,1.16
			c0.222,0.276,0.625,0.302,0.979,0.305c11.472,0.1,22.804-1.773,34.001-4.119c11.134-2.333,22.1-5.463,32.763-9.429
			c54.874-20.411,105.519-59.866,125.532-114.886c2.864-7.873,5.07-15.98,6.666-24.203c6.236-32.132,3.786-66.924-5.643-98.214
			c-7.6-25.22-21.732-49.973-45.055-63.564 M906.521,653.331c1.277-1.311,2.561-2.614,3.852-3.908
			c4.639-4.651,9.432-9.261,15.117-12.553c2.794-1.618,6.107-2.927,9.195-1.986c3.256,0.992,5.322,4.225,6.385,7.459
			c3.207,9.754-0.346,20.604-6.138,29.082c-5.792,8.478-13.662,15.288-20.448,22.994c-21.196,24.073-31.297,57.543-26.956,89.322
			c0.598,4.38,1.542,8.918,4.312,12.363c6.002,7.465,17.56,6.699,26.735,3.948c24.039-7.208,44.932-23.254,60.111-43.239
			c16.821-22.148,27.424-49.222,31.693-76.617c0.208-1.335,0.566-2.895,1.812-3.417c0.548-0.23,1.166-0.2,1.759-0.166
			c7.716,0.437,15.432,0.874,23.147,1.311c-2.14,12.872-4.675,25.886-8.262,38.442c-3.861,12.367-8.876,24.385-15.007,35.799
			c-12.32,22.936-29.675,43.398-51.382,57.774c-12.328,8.165-26.193,14.385-40.866,16.223c-14.672,1.838-30.21-0.986-42.314-9.479
			c-14.102-9.896-22.363-26.607-25.037-43.626c-3.65-23.229,2.229-47.251,13.084-68.109
			C877.325,685.711,891.372,668.89,906.521,653.331z M1131.21,644.296c4.108-1.749,8.064-3.854,11.82-6.397
			c19.395-13.136,29.842-42.396,15.123-60.619c-13.485-11.565-38.385-2.262-40.984,15.311c-0.99,6.695,0.763,13.466,2.656,19.963
			c10.966,37.64,27.116,73.522,44.936,108.362c17.043,33.322,43.774,66.317,41.06,105.427c-0.921,13.272-2.638,27.983-8.797,39.803
			c-6.547,12.565-14.788,24.247-24.445,34.616c-6.037,6.482-12.83,12.586-21.09,15.785c-4.516,1.749-9.333,2.574-14.135,3.206
			c-28.577,3.756-53.118-1.241-77.18-16.726c-6.972-4.487-17.207-12.762-20.818-20.521c-12.655-27.188-8.05-63.997,4.705-90.228
			c12.047-24.776,33.183-43.685,53.264-61.446c7.397-6.542,14.827-13.047,22.278-19.527 M1148.674,686.202
			c24.804-21.311,50.777-41.595,78.38-59.168c8.98-5.719,17.844-11.618,26.677-17.561c6.866-4.619,13.708-9.272,20.593-13.869
			c2.143-1.424,1.104,2.416,0.974,3.274c-1.485,9.755-4.646,19.139-6.984,28.705c-38.8,23.822-76.091,50.094-111.588,78.603
			 M1317.167,566.614c15.45-12.755,30.438-26.844,45.648-39.538c16.075-13.417,32.858-27.118,46.932-42.646
			c10.962-12.095,28.137-31.18,29.681-48.209c1.049-11.571-10.013-21.652-21.569-22.854c-11.556-1.203-22.822,4.409-31.928,11.624
			c-6.482,5.136-12.261,11.157-17.126,17.844c-6.714,9.228-11.63,19.614-16.506,29.932c-8.63,18.261-18.813,34.954-24.778,54.285
			c-6.682,21.658-10.909,43.969-15.124,66.208c-2.482,13.096-4.965,26.201-6.701,39.417c-2.306,17.554-6.23,35.11-8.357,52.504
			c-2.364,19.331-4.94,38.636-7.411,57.954c-1.897,14.832-3.811,30.081-4.188,44.955c-0.389,15.348,0.037,30.353-1.927,45.663
			c-2.639,20.572-7.651,40.84-14.926,60.263c-3.236,8.64-6.258,26.762-17.375,28.921c-5.586,1.085-8.187-2.338-9.269-7.42
			c-1.717-8.069,0.396-20.32,0.473-25.354c0.525-34.227,2.135-68.426,3.762-102.615c1.614-33.939,6.479-67.576,10.808-101.211
			c4.246-32.958,11.371-65.774,21.902-97.308c4.833-14.473,9.891-28.845,15.349-43.096c6.557-17.121,16.445-32.012,24.768-48.143
			c8.249-15.986,18.209-31.278,28.53-46.044c9.58-13.705,18.439-27.717,31.491-38.562c15.585-12.951,29.176-27.637,46.684-38.647
			c14.381-9.043,42.798-21.731,56.556-5.748c0.962,1.117,1.755,2.367,2.545,3.611c5.043,7.947,7.767,13.393,8.048,23.175
			c0.271,9.447-1.493,18.885-4.174,27.909c-4.606,15.504-12.683,37.286-24.391,48.994c-11.447,16.451-25.609,30.806-39.891,44.866
			c-20.302,19.987-41.541,38.355-65.302,54.17c-12.604,8.389-25.208,16.778-37.812,25.166c-3.923,2.611-7.865,4.908-11.827,7.096
			 M1128.236,729.879c-12.692,10.928-25.131,22.151-37.303,33.658c-11.655,11.019-24.359,21.468-33.171,35.053
			c-9.372,14.448-13.977,26.886-12.67,44.088c1.293,17.013,6.726,29.787,22.877,37.356c3.109,1.457,6.376,2.546,9.634,3.632
			c10.89,3.629,20.3,5.038,31.889,4.137c6.775-0.526,10.727-3.537,15.864-8.212c9.42-8.573,16.47-19.703,20.415-31.799
			c5.854-17.952,2.422-35.207,0.359-53.434c-1.891-16.709-5.722-34.024-11.783-49.714c-3.16-8.181-7.122-16.026-11.077-23.854
			c-6.368-12.607-12.737-25.214-19.105-37.821c-1.023-2.024-1.972-4.002-2.843-5.952c-5.191-11.614-7.63-22.234-6.46-35.716
			c0.691-7.968,0.533-14.948,2.43-22.753c1.264-5.202,2.533-10.419,4.398-15.437c5.48-14.738,13.241-26.78,27.757-33.202
			c11.718-5.184,28.333-7.341,38.482,2.278c15.401,14.63,25.323,36.214,16.471,57.117c-5.35,12.633-16.407,22.069-28.399,28.732
			c-5.044,2.803-10.376,5.514-15.87,7.985 M1101.388,676.608c-0.575,1.606-11.649,1.002-13.399,1.058
			c-17.03,0.552-34.096,0.365-51.118-0.345c-11.711-0.47-23.429-0.929-35.101-2.039c-10.117-0.962-20.212-2.4-30.098-4.79
			c-5.66-1.369-11.135-3.376-16.563-5.46c-2.314-0.889-4.604-1.857-6.936-2.698c-3.911-1.41-6.536-2.598-6.326-7.26
			c0.223-4.958,0.836-9.904-1.42-14.528c-1.66-3.402-5.008-6.39-8.91-6.7c-2.348-0.186-4.528,0.722-6.417,2.049
			c-1.791,1.259-3.91,5.317-5.532,2.12c-1.024-2.019-1.386-4.522-1.752-6.738c-0.509-3.084-0.504-6.239-0.168-9.34
			c0.661-6.113,2.817-12.012,5.754-17.386c3.516-6.435,8.06-12.043,12.735-17.646c4.561-5.467,9.409-10.928,15.678-14.478
			c10.109-5.724,21.177-3.498,31.34,0.909c16.03,6.952,30.786,17.402,41.202,31.43c7.58,10.209,12.098,22.413,13.75,34.978
			c0.429,3.263,0.669,6.55,0.732,9.841c0.055,2.848,0.779,5.179-2.368,5.606c-6.629,0.898-13.506-0.27-20.123-0.82
			c-5.004-0.416-4.122-5.441-4.119-9.372c0.013-14.869-6.221-29.645-16.882-40.011c-4.112-3.998-9.031-7.438-14.661-8.528
			c-5.63-1.091-12.042,0.589-15.463,5.191c-2.511,3.378-3.135,7.906-2.361,12.043c0.774,4.138,2.822,7.937,5.234,11.386
			c8.313,11.885,21.105,20.175,34.841,24.83c13.736,4.655,28.421,5.893,42.923,5.667c9.149-0.143,18.276-0.854,27.391-1.599
			c1.679-0.137,21.78-1.093,21.835-1.666c-0.413,4.323-0.176,8.054,1.177,12.234c1.14,3.522,2.819,6.752,4.511,10.028
			C1101.317,675.624,1101.515,676.236,1101.388,676.608z M1512.446,907.248c-22.299-5.21-44.325-11.725-65.949-18.246
			c-11.56-3.486-23.462-7.191-32.678-14.992c-15.501-13.12-20.213-35.1-20.264-55.408c-0.142-56.33,27.814-109.199,32.866-165.302
			c1.417-15.741-1.255-35.221-15.89-41.191c-6.717-2.74-14.394-1.73-21.33,0.397c-16.569,5.081-30.732,16.067-42.913,28.394
			c-41.014,41.504-62.899,101.201-58.427,159.379c12.236-42.627,31.599-83.199,57.043-119.522
			c7.474-10.67,16.256-21.548,28.678-25.471c3.805-1.202,8.056-1.66,11.71-0.057c8.52,3.737,9.051,15.493,7.772,24.708
			c-1.647,11.859-4.063,23.685-6.823,35.486c-12.081,51.643-30.769,102.806-20.56,154.2c2.989,15.047,8.923,30.286,20.742,40.066
			c13.389,11.079,31.812,13.29,49.133,14.703c16.078,1.312,32.262,2.304,48.482,2.875 M1500.28,927.697
			c83.876,1.463,168.231-8.776,243.794-47.384c22.622-11.559,46.692-29.297,47.672-54.682c1.051-27.237-27.353-48.377-54.598-49.179
			c-27.245-0.802-52.608,13.014-75.696,27.501c-98.047,61.521-185.041,143.416-293.569,183.662
			c-133.085,49.353-282.962,29.378-416.865-17.711c-87.488-30.766-171.524-72.815-262.293-91.832
			c-131.488-27.548-273.095-3.421-388.042,66.114c97.258-33.18,200.629-61.08,301.834-43.26
			c68.677,12.092,131.765,44.493,195.406,72.999c95.482,42.767,195.729,77.779,299.867,87.832s212.989-6.333,302.554-60.406
			c48.074-29.023,89.833-66.88,135.008-99.966c22.552-16.517,46.049-31.911,71.28-44.046c24.978-12.013,55.482-24.272,83.315-26.283
			c12.298-0.889,19.897,7.602,18.068,19.898c-2.884,19.386-15.485,36.516-31.68,47.554s-35.698,16.446-55.199,18.405
			c-32.874,3.303-65.612-0.401-97.829-7.243"/>
	</g>
</g>
<g>
</g>
<g>
</g>
<g>
</g>
<g>
</g>
<g>
</g>
<g>
</g>
</svg>
