<?xml version="1.0" encoding="iso-8859-1"?>
<!-- Generator: Adobe Illustrator 18.1.1, SVG Export Plug-In . SVG Version: 6.00 Build 0)  -->
<svg version="1.1" id="Layer_1" xmlns="http://www.w3.org/2000/svg" xmlns:xlink="http://www.w3.org/1999/xlink" x="0px" y="0px"
	 viewBox="0 0 103.47 103.494" style="enable-background:new 0 0 103.47 103.494;" xml:space="preserve">
<g>
	<path style="fill:#8C8C8C;" d="M103.47,50.422c0,27.822-22.74,50.4-50.8,50.4c-8.911,0-17.262-2.27-24.546-6.276L0,103.494
		l9.161-27.057c-4.619-7.596-7.287-16.516-7.287-26.03C1.874,22.573,24.614,0,52.689,0C80.731,0,103.47,22.573,103.47,50.422
		L103.47,50.422z M52.67,8.047c-23.54,0-42.708,19.01-42.708,42.375c0,9.277,3.018,17.862,8.144,24.843l-5.341,15.739l16.41-5.222
		c6.761,4.426,14.835,7.017,23.495,7.017c23.55,0,42.71-19.008,42.71-42.377C95.38,27.057,76.22,8.047,52.67,8.047L52.67,8.047z
		 M78.331,62.022c-0.316-0.514-1.139-0.83-2.393-1.435c-1.238-0.63-7.367-3.611-8.5-4.019c-1.158-0.415-1.98-0.63-2.803,0.629
		c-0.825,1.235-3.211,3.995-3.954,4.832c-0.723,0.827-1.452,0.926-2.685,0.321c-1.254-0.63-5.275-1.925-10.015-6.129
		c-3.715-3.283-6.216-7.316-6.942-8.568c-0.721-1.24-0.065-1.896,0.545-2.506c0.56-0.559,1.25-1.442,1.881-2.176
		c0.622-0.724,0.823-1.233,1.235-2.058c0.405-0.827,0.212-1.553-0.099-2.164c-0.314-0.625-2.806-6.701-3.84-9.176
		c-1.037-2.468-2.077-2.053-2.801-2.053c-0.728,0-1.548-0.106-2.388-0.106c-0.825,0-2.176,0.302-3.317,1.553
		c-1.151,1.24-4.368,4.224-4.368,10.295c0,6.1,4.472,11.964,5.097,12.787c0.625,0.815,8.614,13.708,21.273,18.646
		c12.669,4.95,12.669,3.297,14.943,3.095c2.291-0.217,7.362-2.989,8.404-5.869C78.639,65.013,78.639,62.548,78.331,62.022
		L78.331,62.022z M78.331,62.022"/>
</g>
<g>
</g>
<g>
</g>
<g>
</g>
<g>
</g>
<g>
</g>
<g>
</g>
<g>
</g>
<g>
</g>
<g>
</g>
<g>
</g>
<g>
</g>
<g>
</g>
<g>
</g>
<g>
</g>
<g>
</g>
</svg>
