<?xml version="1.0" encoding="iso-8859-1"?>
<!-- Generator: Adobe Illustrator 18.1.1, SVG Export Plug-In . SVG Version: 6.00 Build 0)  -->
<svg version="1.1" id="Layer_1" xmlns="http://www.w3.org/2000/svg" xmlns:xlink="http://www.w3.org/1999/xlink" x="0px" y="0px"
	 viewBox="0 0 94.808 107.119" style="enable-background:new 0 0 94.808 107.119;" xml:space="preserve">
<g>
	<g>
		<path style="fill:#7D7372;" d="M356.733,20.364c2.135-0.449,5.506-0.786,8.933-0.786c4.889,0,8.035,0.842,10.395,2.753
			c1.966,1.46,3.146,3.708,3.146,6.686c0,3.652-2.416,6.854-6.405,8.315v0.112c3.596,0.899,7.81,3.877,7.81,9.495
			c0,3.259-1.293,5.73-3.203,7.584c-2.641,2.416-6.91,3.54-13.09,3.54c-3.371,0-5.955-0.225-7.585-0.449V20.364z M361.621,35.871
			h4.438c5.169,0,8.202-2.697,8.202-6.349c0-4.438-3.37-6.18-8.314-6.18c-2.247,0-3.539,0.168-4.326,0.337V35.871z M361.621,54.018
			c0.955,0.168,2.359,0.225,4.102,0.225c5.057,0,9.72-1.854,9.72-7.36c0-5.169-4.438-7.304-9.776-7.304h-4.045V54.018z"/>
		<path style="fill:#7D7372;" d="M391.793,30.533v10.956h12.922V30.533h4.889v27.192h-4.889V45.421h-12.922v12.304h-4.888V30.533
			H391.793z"/>
		<path style="fill:#7D7372;" d="M422.246,30.533v11.461c0,4.326-0.057,7.023-0.281,10.9l0.169,0.056
			c1.629-3.315,2.584-5.225,4.382-8.372L435,30.533h5.786v27.192h-4.72V46.208c0-4.438,0.113-6.742,0.338-11.124h-0.169
			c-1.741,3.483-2.921,5.674-4.495,8.427c-2.584,4.214-5.562,9.439-8.482,14.214h-5.676V30.533H422.246z"/>
		<path style="fill:#7D7372;" d="M449.104,30.533h6.067l4.944,13.708c0.674,2.022,1.854,5.337,2.472,7.472h0.112
			c0.618-2.022,2.135-6.349,3.203-9.326l4.381-11.854h6.125l1.91,27.192h-4.72l-0.618-12.978c-0.168-2.922-0.393-6.405-0.506-9.72
			h-0.168c-0.73,2.472-1.461,4.663-2.979,8.821l-5.225,13.708h-3.596l-4.832-13.428c-0.842-2.584-2.021-6.517-2.696-9.045h-0.225
			c-0.112,3.202-0.28,6.798-0.45,9.776l-0.674,12.866h-4.551L449.104,30.533z"/>
		<path style="fill:#7D7372;" d="M499.782,57.726l-0.394-3.427h-0.168c-1.518,2.135-4.438,4.045-8.315,4.045
			c-5.506,0-8.315-3.877-8.315-7.81c0-6.573,5.844-10.169,16.35-10.113v-0.562c0-2.247-0.617-6.292-6.18-6.292
			c-2.528,0-5.169,0.787-7.079,2.022l-1.124-3.258c2.248-1.461,5.506-2.416,8.934-2.416c8.314,0,10.338,5.674,10.338,11.124v10.169
			c0,2.359,0.111,4.663,0.449,6.517H499.782z M499.052,43.849c-5.394-0.113-11.517,0.843-11.517,6.124
			c0,3.203,2.135,4.72,4.662,4.72c3.54,0,5.787-2.248,6.574-4.551c0.168-0.506,0.28-1.068,0.28-1.573V43.849z"/>
		<path style="fill:#7D7372;" d="M529.786,30.533v3.933h-8.483v23.26h-4.889v-23.26h-8.482v-3.933H529.786z"/>
		<path style="fill:#7D7372;" d="M536.137,45.028c0.113,6.686,4.383,9.438,9.326,9.438c3.54,0,5.675-0.618,7.529-1.404l0.842,3.54
			c-1.741,0.787-4.719,1.686-9.045,1.686c-8.371,0-13.371-5.506-13.371-13.709s4.832-14.664,12.754-14.664
			c8.876,0,11.236,7.81,11.236,12.81c0,1.011-0.113,1.798-0.169,2.304H536.137z M550.633,41.489
			c0.056-3.146-1.293-8.034-6.855-8.034c-5,0-7.191,4.607-7.584,8.034H550.633z"/>
		<path style="fill:#7D7372;" d="M582.208,30.533v27.192h-4.888V34.41h-9.326v7.079c0,7.641-0.73,12.753-4.27,15.057
			c-1.35,1.067-2.866,1.686-5.395,1.686l-0.506-3.877c0.955-0.168,2.023-0.562,2.697-1.124c2.528-1.854,2.809-5.674,2.809-11.742
			V30.533H582.208z"/>
		<path style="fill:#7D7372;" d="M595.075,30.533v9.214c1.124-0.225,3.034-0.281,4.495-0.281c6.123,0,12.584,1.91,12.584,9.158
			c0,2.809-1.123,4.775-2.865,6.236c-2.978,2.528-7.809,3.146-11.798,3.146c-2.753,0-5.281-0.168-7.304-0.393v-27.08H595.075z
			 M595.075,54.298c0.955,0.112,2.022,0.225,3.651,0.225c3.709,0,8.484-1.236,8.484-5.787c0-4.719-4.944-5.73-8.596-5.73
			c-1.293,0-2.416,0.112-3.54,0.281V54.298z"/>
		<path style="fill:#7D7372;" d="M623.056,30.533v10.956h12.922V30.533h4.888v27.192h-4.888V45.421h-12.922v12.304h-4.888V30.533
			H623.056z"/>
		<path style="fill:#7D7372;" d="M653.733,30.533v9.27c1.067-0.225,2.641-0.337,4.438-0.337c5.843,0,11.742,2.416,11.742,9.102
			c0,2.865-1.067,4.832-2.809,6.292c-2.979,2.528-7.36,3.146-10.956,3.146c-2.753,0-5.281-0.168-7.304-0.393v-27.08H653.733z
			 M653.733,54.298c0.955,0.112,2.022,0.225,3.427,0.225c3.765,0,7.865-1.573,7.865-5.787c0-4.382-3.932-5.73-7.641-5.73
			c-1.404,0-2.641,0.112-3.651,0.281V54.298z M678.229,30.533v27.192h-4.887V30.533H678.229z"/>
		<path style="fill:#7D7372;" d="M690.873,30.533v11.461c0,4.326-0.057,7.023-0.281,10.9l0.168,0.056
			c1.629-3.315,2.584-5.225,4.383-8.372l8.483-14.045h5.786v27.192h-4.719V46.208c0-4.438,0.112-6.742,0.337-11.124h-0.169
			c-1.741,3.483-2.921,5.674-4.494,8.427c-2.584,4.214-5.563,9.439-8.483,14.214h-5.675V30.533H690.873z M694.074,19.465
			c0.169,2.416,1.35,4.27,3.596,4.27c2.416,0,3.54-1.798,3.82-4.27h3.54c-0.225,4.607-3.146,6.967-7.472,6.967
			c-4.944,0-6.855-3.09-7.08-6.967H694.074z"/>
		<path style="fill:#7D7372;" d="M378.926,97.958v27.192h-4.944v-23.26H361.34v23.26h-4.888V97.958H378.926z"/>
		<path style="fill:#7D7372;" d="M411.569,111.329c0,10.057-6.967,14.439-13.54,14.439c-7.359,0-13.035-5.394-13.035-13.99
			c0-9.102,5.956-14.439,13.484-14.439C406.288,97.339,411.569,103.014,411.569,111.329z M389.995,111.61
			c0,5.956,3.427,10.45,8.259,10.45c4.719,0,8.259-4.438,8.259-10.563c0-4.607-2.304-10.45-8.146-10.45
			S389.995,106.441,389.995,111.61z"/>
		<path style="fill:#7D7372;" d="M438.483,97.958v23.484l2.81,0.056l-0.281,12.304h-3.877l-0.225-8.652h-18.821l-0.225,8.652h-3.876
			l-0.226-12.304l2.304-0.056c1.18-1.742,2.078-3.596,2.697-5.562c1.066-3.371,1.572-7.023,1.572-10.843v-7.079H438.483z
			 M424.719,106.216c0,3.596-0.506,7.079-1.404,10.113c-0.563,1.854-1.349,3.54-2.191,5.057h12.529v-19.664h-8.934V106.216z"/>
		<path style="fill:#7D7372;" d="M449.723,97.958l3.876,5.843c1.012,1.517,1.854,2.921,2.753,4.438h0.169
			c0.899-1.629,1.798-3.034,2.696-4.495l3.82-5.787h5.338l-9.27,13.146l9.551,14.046h-5.619l-3.988-6.124
			c-1.068-1.573-1.967-3.09-2.922-4.719h-0.112c-0.899,1.629-1.854,3.09-2.865,4.719l-3.933,6.124h-5.45l9.663-13.877l-9.213-13.315
			H449.723z"/>
		<path style="fill:#7D7372;" d="M497.255,111.329c0,10.057-6.967,14.439-13.54,14.439c-7.359,0-13.035-5.394-13.035-13.99
			c0-9.102,5.956-14.439,13.484-14.439C491.974,97.339,497.255,103.014,497.255,111.329z M475.681,111.61
			c0,5.956,3.427,10.45,8.259,10.45c4.719,0,8.259-4.438,8.259-10.563c0-4.607-2.304-10.45-8.146-10.45
			S475.681,106.441,475.681,111.61z"/>
		<path style="fill:#7D7372;" d="M524.17,97.958v23.484l2.809,0.056l-0.281,12.304h-3.876l-0.226-8.652h-18.82l-0.225,8.652h-3.877
			l-0.225-12.304l2.303-0.056c1.18-1.742,2.079-3.596,2.697-5.562c1.067-3.371,1.573-7.023,1.573-10.843v-7.079H524.17z
			 M510.404,106.216c0,3.596-0.506,7.079-1.404,10.113c-0.562,1.854-1.348,3.54-2.191,5.057h12.529v-19.664h-8.934V106.216z"/>
		<path style="fill:#7D7372;" d="M549.679,97.958v11.798h1.18l10.226-11.798h6.012l-11.855,12.304
			c4.383,0.45,7.023,3.371,9.158,8.259c0.73,1.798,1.686,4.438,2.922,6.629h-5.169c-0.73-1.18-1.686-3.315-2.528-5.562
			c-1.854-4.382-4.383-6.405-8.989-6.405h-0.955v11.967h-4.888V97.958H549.679z"/>
		<path style="fill:#7D7372;" d="M585.862,109.362h2.36c4.156,0,6.966-1.91,6.966-4.438c0-2.416-2.19-3.933-5.28-3.933
			c-2.191,0-4.664,0.73-6.574,1.91l-1.236-3.034c2.754-1.686,5.899-2.472,9.046-2.472c4.157,0,9.214,1.854,9.214,7.135
			c0,3.371-3.09,5.562-6.124,6.18v0.112c4.046,0.337,7.417,2.809,7.417,6.798c0,5.899-6.012,8.09-11.742,8.09
			c-3.203,0-6.406-0.843-8.821-2.191l1.292-3.314c1.967,1.067,4.607,1.854,7.191,1.854c4.102,0,6.686-1.967,6.686-4.664
			c0-3.652-3.82-4.663-7.922-4.663h-2.472V109.362z"/>
		<path style="fill:#7D7372;" d="M622.889,125.15l-0.393-3.427h-0.169c-1.517,2.135-4.438,4.045-8.315,4.045
			c-5.506,0-8.314-3.877-8.314-7.81c0-6.573,5.843-10.169,16.349-10.113v-0.562c0-2.247-0.618-6.292-6.18-6.292
			c-2.528,0-5.169,0.787-7.079,2.022l-1.124-3.258c2.247-1.461,5.506-2.416,8.933-2.416c8.316,0,10.338,5.674,10.338,11.124v10.169
			c0,2.359,0.113,4.663,0.449,6.517H622.889z M622.158,111.273c-5.394-0.113-11.518,0.842-11.518,6.124
			c0,3.203,2.135,4.72,4.664,4.72c3.539,0,5.786-2.248,6.572-4.551c0.169-0.506,0.281-1.068,0.281-1.573V111.273z"/>
		<path style="fill:#7D7372;" d="M639.801,97.958v11.798h1.18l10.227-11.798h6.011l-11.854,12.304
			c4.383,0.45,7.023,3.371,9.158,8.259c0.73,1.798,1.686,4.438,2.922,6.629h-5.17c-0.73-1.18-1.686-3.315-2.527-5.562
			c-1.854-4.382-4.383-6.405-8.99-6.405h-0.955v11.967h-4.887V97.958H639.801z"/>
		<path style="fill:#7D7372;" d="M677.445,125.15l-0.394-3.427h-0.169c-1.517,2.135-4.438,4.045-8.314,4.045
			c-5.506,0-8.315-3.877-8.315-7.81c0-6.573,5.843-10.169,16.349-10.113v-0.562c0-2.247-0.617-6.292-6.18-6.292
			c-2.527,0-5.168,0.787-7.078,2.022l-1.125-3.258c2.248-1.461,5.507-2.416,8.934-2.416c8.315,0,10.338,5.674,10.338,11.124v10.169
			c0,2.359,0.112,4.663,0.449,6.517H677.445z M676.715,111.273c-5.394-0.113-11.518,0.842-11.518,6.124
			c0,3.203,2.135,4.72,4.663,4.72c3.54,0,5.786-2.248,6.573-4.551c0.168-0.506,0.281-1.068,0.281-1.573V111.273z"/>
		<path style="fill:#7D7372;" d="M691.717,109.362h2.36c4.157,0,6.966-1.91,6.966-4.438c0-2.416-2.19-3.933-5.28-3.933
			c-2.191,0-4.663,0.73-6.573,1.91l-1.236-3.034c2.753-1.686,5.898-2.472,9.045-2.472c4.158,0,9.215,1.854,9.215,7.135
			c0,3.371-3.09,5.562-6.125,6.18v0.112c4.046,0.337,7.417,2.809,7.417,6.798c0,5.899-6.012,8.09-11.742,8.09
			c-3.202,0-6.405-0.843-8.821-2.191l1.293-3.314c1.966,1.067,4.606,1.854,7.191,1.854c4.102,0,6.686-1.967,6.686-4.664
			c0-3.652-3.82-4.663-7.922-4.663h-2.473V109.362z"/>
		<path style="fill:#7D7372;" d="M714.867,97.958l5.955,16.068c0.618,1.798,1.293,3.933,1.742,5.562h0.111
			c0.506-1.629,1.068-3.708,1.742-5.675l5.394-15.956h5.226l-7.416,19.383c-3.54,9.327-5.956,14.102-9.327,17.023
			c-2.415,2.135-4.831,2.978-6.067,3.203l-1.236-4.158c1.236-0.393,2.865-1.18,4.326-2.416c1.349-1.068,3.033-2.978,4.158-5.506
			c0.225-0.505,0.393-0.899,0.393-1.18s-0.112-0.674-0.337-1.292l-10.057-25.058H714.867z"/>
	</g>
	<g>
		<path style="fill:#7D7372;" d="M252.545,80.057c-1.471,0.609-2.512,1.547-1.667,3.215c1.371,2.706,0.484,4.99-1.403,6.812
			c-7.585,7.321-13.003,16.325-19.287,24.647c-4.677,6.194-8.897,12.733-13.497,18.989c-0.696,0.946-2.378,1.718-3.559,1.66
			c-4.924-0.243-9.063-2.401-11.914-6.446c-2.017-2.861-1.212-6.301,1.287-9.44c6.706-8.423,13.381-16.873,19.896-25.444
			c3.106-4.086,5.817-8.473,8.715-12.719c2.076-3.043,4.137-6.027,8.665-4.252c0.555,0.218,1.943-0.421,2.192-0.991
			c0.364-0.833,0.364-2.117-0.033-2.943c-1.947-4.054-4.798-7.818-5.99-12.061c-2.423-8.627-3.521-17.649,0.97-25.952
			c11.605-21.458,34.732-26.756,53.387-13.124c10.07,7.358,14.956,17.346,15.641,29.888c0.598,10.936-4.937,18.526-11.841,25.757
			c-5.909,6.189-13.743,6.883-21.54,7.544C265.349,85.809,258.752,83.648,252.545,80.057z M288.365,26.839
			c-1.246-2.251-3.166-3.458-5.716-3.691c-0.975-0.71-1.885-1.539-2.936-2.111c-9.159-4.984-26.309-0.792-32.473,6.249
			c-5.948,6.795-10.196,13.914-9.288,23.515c0.637,6.735,2.753,12.73,6.176,18.419c1.922,3.195,3.953,6.426,0.814,9.866
			c1.589,1.842,2.574,1.456,3.419-0.201c0.807-1.581,1.683-3.127,2.63-4.875c1.176,0.651,1.829,1.031,2.499,1.379
			c3.037,1.578,5.931,3.62,9.148,4.624c7.895,2.465,15.728,0.579,23.484-1.236c0.735-0.172,1.456-0.618,2.061-1.092
			c9.423-7.373,15.808-16.238,14.033-29.046c-0.404,5.407-2.535,10.286-5.182,14.825c-4.86,8.332-12.453,13.401-21.962,13.84
			c-11.623,0.536-21.764-3.428-28.526-13.684c-1.279-1.939-3.314-3.929-3.425-5.981c-0.292-5.405-0.457-11.021,0.704-16.247
			c1.365-6.143,5.359-10.848,10.568-14.876c5.335-4.125,10.879-6.006,17.358-5.358c3.686,0.369,7.32,1.247,10.979,1.895
			c1.904,1.235,3.807,2.469,5.711,3.704c3.246,3.755,6.492,7.51,9.739,11.265C295.759,33.535,293.788,28.649,288.365,26.839z
			 M246.262,53.11c0.461,1.46,0.757,4.054,2.006,6.053c4.705,7.533,11.546,11.925,20.418,13.343
			c6.457,1.032,12.387,0.093,17.963-3.282c6.769-4.097,9.2-11.078,11.82-17.899c0.293-0.762-0.094-1.842-0.318-2.736
			c-2.603-10.401-9.21-18.019-18.766-21.775c-12.485-4.906-20.935-0.899-28.676,8.853C246.939,40.417,246.768,46.327,246.262,53.11z
			 M208.775,118.26c2.101,1.145,4.025,2.194,5.949,3.243c-1.799,0.476-3.283,0.194-4.74-0.192c-2.537-0.673-2.53-0.699-3.901,1.229
			c2.093,0.978,4.148,1.938,6.203,2.898c-0.089,0.198-0.178,0.395-0.267,0.593c-2.322-0.298-4.645-0.595-6.967-0.893
			c0.351,1.946,1.011,3.17,1.978,4.061c2.899,2.672,5.28,2.323,7.692-0.848c5.195-6.827,10.415-13.635,15.654-20.428
			c4.938-6.402,9.937-12.758,14.847-19.181c0.722-0.944,1.1-2.152,1.7-3.364c-2.54-2.988-6.156-3.092-9.235-4.637
			c-1.246,1.405-2.341,2.64-3.454,3.896c2.483,1.921,5.672,1.567,8.264,4.727c-3.91-0.976-6.804-1.698-10.116-2.524
			c-0.792,1.035-1.871,2.444-3.148,4.113c1.759,0.905,2.983,1.538,4.21,2.165c1.077,0.55,2.157,1.094,3.235,1.64
			c-0.129,0.27-0.258,0.539-0.387,0.809c-2.793-0.733-5.585-1.465-8.592-2.254c-0.876,1.391-1.666,2.643-2.462,3.907
			c1.019,0.682,1.759,1.177,2.499,1.671c-3.799,0.361-6.337,1.355-7.115,5.267c2.455,1.01,4.729,1.945,7.003,2.88
			c-0.097,0.295-0.193,0.59-0.29,0.885c-2.053-0.491-4.089-1.082-6.164-1.451c-3.38-0.602-3.881-0.269-5.057,2.795
			c1.482,0.839,2.968,1.681,4.839,2.74c-2.994,1.408-6.33-3.036-8.242,1.765c1.862,1.051,3.66,2.065,5.437,3.067
			C214.967,118.58,211.552,113.323,208.775,118.26z"/>
		<path style="fill:#7D7372;" d="M272.706,66.098C283.442,64,289.39,58.02,291.979,47.84c0.954,1.192,1.947,1.903,1.851,2.403
			c-0.409,2.114-0.693,4.468-1.847,6.178c-2.893,4.285-6.583,7.892-11.444,9.987C278.355,67.348,276.05,68.115,272.706,66.098z"/>
	</g>
</g>
<g>
	<path style="fill:#7D7372;" d="M27.215,0.041c1.636-0.014,3.273-0.054,4.909-0.037c9.096,0.099,18.192,0.191,27.287,0.328
		c4.488,0.068,8.974,0.301,13.461,0.323c3.641,0.017,4.748,0.608,6.217,3.918c0.441,0.994,0.779,2.034,1.223,3.027
		c1.671,3.729,4.014,6.554,8.208,7.887c7.695,2.445,6.558,2.633,5.612,8.857c-1.929,12.686-4.169,25.287-10.064,36.939
		c-3.841,7.594-8.602,14.556-13.766,21.244c-4.49,5.815-9.281,11.404-14.082,16.971c-1.858,2.154-3.996,4.105-6.203,5.909
		c-3.208,2.624-5.673,2.166-8.439-0.919c-1.887-2.104-4.2-3.827-6.08-5.937c-4.785-5.37-9.805-10.589-14.055-16.366
		C13.97,72.025,8.296,60.805,4.642,48.715c-2.528-8.362-4.143-16.948-4.08-25.779c0.023-3.227,0.983-5.457,4.281-6.552
		c1.333-0.443,2.589-1.51,3.56-2.583c2.929-3.24,5.661-6.648,7.142-10.858c0.651-1.851,1.741-2.937,3.927-2.82
		c2.573,0.137,5.162-0.006,7.744-0.028C27.215,0.078,27.215,0.059,27.215,0.041z M47.22,103.465
		c4.652-4.633,9.349-8.796,13.418-13.502c4.263-4.93,8.016-10.313,11.827-15.618c7.169-9.981,11.652-21.239,14.829-32.993
		c1.451-5.368,2.01-10.977,3.006-16.47c0.72-3.969,0.598-4.521-3.189-5.717c-5.579-1.762-8.824-5.659-10.798-10.89
		c-1.561-4.136-2.854-4.974-7.164-4.87c-3.394,0.082-6.795,0.072-10.188-0.031c-3.27-0.1-6.537-0.574-9.801-0.528
		C41.54,2.953,33.92,3.532,26.308,3.413c-4.561-0.072-7.484,1.155-9.779,5.41c-1.95,3.615-4.755,7.248-8.104,9.505
		c-3.855,2.598-4.961,5.543-4.331,9.622c1.498,9.694,3.32,19.257,7.089,28.454c6.088,14.857,14.329,28.127,26.339,38.897
		C40.528,97.998,43.7,100.511,47.22,103.465z"/>
	<path style="fill:#7D7372;" d="M87.148,28.682C85.86,40.794,82.21,52.142,75.859,62.538c-4.686,7.67-9.388,15.355-14.576,22.683
		c-3.279,4.632-7.29,8.797-11.306,12.84c-3.02,3.041-4.764,2.774-7.496-0.46c-5.806-6.873-11.787-13.621-17.206-20.79
		c-5.28-6.986-9.364-14.697-11.654-23.286c-1.472-5.521-3.423-10.913-4.998-16.409c-0.86-3.003-1.378-6.104-2.062-9.159
		C5.773,24.443,6.39,24.049,9,21.505c3.586-3.496,6.946-7.338,9.768-11.466c2.367-3.461,2.741-4.097,6.992-3.844
		c8.166,0.485,16.335,1.021,24.51,1.243c6.275,0.17,12.565-0.037,18.844-0.229c2.354-0.072,3.925,0.62,4.758,2.91
		c1.566,4.303,4.515,7.614,8.639,9.307C87.068,21.296,87.438,24.667,87.148,28.682z M41.455,90.965
		c1.274,1.61,2.08,2.858,3.112,3.878c1.567,1.549,3.111,1.668,4.647-0.029c3.934-4.347,8.064-8.604,11.372-13.409
		c4.32-6.275,7.759-13.149,11.874-19.576c6.015-9.394,8.743-19.884,10.819-30.629c0.231-1.195,0.163-2.447,0.24-3.672
		c0.142-2.272-0.73-3.963-2.787-5.03c-2.864-1.487-4.98-3.747-6.712-6.44c-1.099-1.709-2.36-3.314-3.643-5.096
		c-15.659-0.395-31.419-0.793-47.179-1.177c-0.08-0.002-0.192,0.192-0.241,0.314c-0.049,0.122-0.039,0.268-0.106,0.854
		c1.174,0.416,2.461,0.872,3.799,1.346c-2.116,1.393-6.142-1.062-6.654,3.618c1.171,0.066,2.254,0.038,3.304,0.211
		c1.07,0.176,2.108,0.549,3.956,1.053c-9.778,0.913-9.778,0.913-11.164,3.192c2.606,0.192,5.078,0.375,7.549,0.558
		c-4.297,1.753-9.318-0.009-13.8,4.222c5.3-0.044,9.729-0.081,14.158-0.118c-4.28,2.214-9.21,0.648-13.492,3.011
		c0.59,2.476,2.525,1.864,3.966,1.884c4.393,0.061,8.789-0.038,13.184-0.075c0,0.132,0.001,0.264,0.001,0.395
		c-5.362,0.542-10.725,1.083-16.039,1.62c-0.25,2.419,0.724,2.862,2.399,2.696c2.36-0.233,4.732-0.352,7.098-0.52
		c0.057,0.308,0.114,0.616,0.171,0.925c-2.937,0.581-5.874,1.161-8.808,1.741c0.711,3.568,0.711,3.5,3.475,3.49
		c2.702-0.01,5.404,0.138,8.106,0.217c-0.011,0.175-0.023,0.349-0.034,0.524c-3.306,0.532-6.612,1.063-10.223,1.643
		c0.443,1.241,0.743,2.081,1.133,3.174c2.418-0.02,4.746-0.04,7.075-0.059c0.018,0.201,0.036,0.403,0.054,0.604
		c-2.129,0.533-4.259,1.067-6.369,1.595c1.103,5.121,1.216,5.207,5.856,5.533c1.004,0.071,1.999,0.279,2.998,0.423
		c0.009,0.171,0.017,0.342,0.026,0.512c-2.08,0.441-4.16,0.883-6.592,1.399c0.485,1.115,0.94,2.165,1.393,3.207
		c2.612-0.022,4.913-0.041,7.215-0.06c0.014,0.206,0.027,0.413,0.041,0.619c-2.009,0.461-4.019,0.922-6.389,1.466
		c0.649,1.457,1.12,2.513,1.49,3.345c4.2,0.274,8.031,0.524,11.863,0.773c-0.008,0.226-0.016,0.452-0.025,0.678
		c-3.459,0.201-6.917,0.401-10.483,0.608c1.649,4.256,1.691,4.342,5.153,4.175c2.383-0.115,4.757-0.41,7.136-0.625
		c0.049,0.283,0.099,0.566,0.148,0.849c-2.804,0.599-5.607,1.198-8.493,1.814c1.889,4.105,1.888,4.08,5.397,3.966
		c2.118-0.069,4.239-0.045,6.358-0.063c0.032,0.218,0.065,0.436,0.097,0.654c-2.395,0.512-4.79,1.024-7.366,1.574
		c2.54,3.947,2.544,3.914,6.574,4.451c0.793,0.106,1.537,0.583,2.574,0.996c-1.612,0.468-2.808,0.816-3.997,1.161
		c1.895,5.1,6.414,2.881,9.564,4.568C44.879,90.218,43.523,90.514,41.455,90.965z"/>
	<path style="fill:#7D7372;" d="M69.786,25.8c1.626,2.082,1.085,3.584-0.036,4.862c-1.776,2.024-3.77,3.855-5.553,5.873
		c-6.749,7.636-13.462,15.306-20.16,22.987c-1.155,1.325-2.171,2.772-3.15,4.032c-2.058,0.478-3.28-0.493-4.462-1.717
		c-3.677-3.808-7.403-7.57-11.089-11.369c-0.361-0.373-0.581-0.883-0.98-1.506c1.367-1.568,2.611-3.175,4.043-4.592
		c2.013-1.992,3.409-2.168,5.847-0.726c1.515,0.896,2.834,2.115,4.307,3.091c1.672,1.107,3.349,1.67,5.217,0.158
		c6.348-5.135,12.774-10.173,19.121-15.309c1.258-1.018,2.228-2.388,3.461-3.444C67.393,27.25,68.622,26.58,69.786,25.8z
		 M52.714,43.903c-0.128-0.184-0.255-0.368-0.383-0.552c-2.16,2.018-4.433,3.93-6.451,6.081c-2.753,2.933-3.753,3.296-7.311,1.248
		c-2.335-1.344-4.472-3.032-6.882-4.692c-0.96,0.788-1.852,1.521-3.007,2.469c3.958,3.492,7.697,6.791,11.512,10.156
		C44.117,54.002,48.415,48.953,52.714,43.903z"/>
</g>
<g>
	<g>
	</g>
	<g>
		<path style="fill:#7D7372;" d="M402.862,280.779c-1.798,0.899-5.394,1.798-10.001,1.798c-10.675,0-18.709-6.742-18.709-19.159
			c0-11.854,8.034-19.889,19.776-19.889c4.72,0,7.697,1.011,8.989,1.686l-1.18,3.989c-1.854-0.898-4.495-1.573-7.641-1.573
			c-8.877,0-14.776,5.674-14.776,15.619c0,9.27,5.337,15.226,14.552,15.226c2.978,0,6.011-0.618,7.978-1.573L402.862,280.779z"/>
		<path style="fill:#7D7372;" d="M425.506,254.822v10.956h12.922v-10.956h4.888v27.192h-4.888V269.71h-12.922v12.304h-4.888v-27.192
			H425.506z"/>
		<path style="fill:#7D7372;" d="M466.465,282.015l-0.394-3.427h-0.168c-1.517,2.135-4.438,4.045-8.315,4.045
			c-5.506,0-8.314-3.877-8.314-7.81c0-6.573,5.843-10.169,16.349-10.113v-0.562c0-2.247-0.618-6.292-6.18-6.292
			c-2.528,0-5.169,0.787-7.079,2.022l-1.124-3.258c2.247-1.461,5.506-2.416,8.934-2.416c8.314,0,10.337,5.674,10.337,11.124v10.169
			c0,2.359,0.112,4.663,0.45,6.517H466.465z M465.734,268.138c-5.394-0.113-11.518,0.842-11.518,6.124
			c0,3.203,2.136,4.72,4.663,4.72c3.54,0,5.787-2.248,6.574-4.551c0.168-0.506,0.28-1.068,0.28-1.573V268.138z"/>
		<path style="fill:#7D7372;" d="M478.771,254.822h6.068l4.944,13.708c0.674,2.022,1.854,5.337,2.472,7.472h0.112
			c0.618-2.022,2.135-6.349,3.202-9.326l4.383-11.854h6.124l1.91,27.192h-4.72l-0.618-12.978c-0.168-2.922-0.393-6.405-0.506-9.72
			h-0.168c-0.73,2.472-1.461,4.663-2.978,8.821l-5.226,13.708h-3.596l-4.831-13.428c-0.843-2.584-2.023-6.517-2.697-9.045h-0.225
			c-0.112,3.202-0.281,6.798-0.449,9.776l-0.675,12.866h-4.551L478.771,254.822z"/>
		<path style="fill:#7D7372;" d="M518.943,254.822v11.461c0,4.326-0.057,7.022-0.281,10.899l0.169,0.056
			c1.629-3.315,2.584-5.225,4.382-8.372l8.483-14.045h5.787v27.192h-4.72v-11.518c0-4.438,0.113-6.742,0.338-11.124h-0.169
			c-1.741,3.483-2.922,5.674-4.494,8.427c-2.585,4.214-5.563,9.439-8.484,14.214h-5.674v-27.192H518.943z"/>
		<path style="fill:#7D7372;" d="M577.825,254.822v27.192h-4.889v-23.316h-9.326v7.079c0,7.641-0.73,12.753-4.27,15.057
			c-1.349,1.067-2.865,1.686-5.394,1.686l-0.506-3.877c0.955-0.168,2.022-0.562,2.697-1.124c2.527-1.854,2.809-5.674,2.809-11.742
			v-10.956H577.825z"/>
		<path style="fill:#7D7372;" d="M588.67,269.317c0.112,6.686,4.382,9.438,9.326,9.438c3.539,0,5.675-0.618,7.528-1.404l0.843,3.54
			c-1.741,0.787-4.719,1.686-9.045,1.686c-8.372,0-13.372-5.506-13.372-13.709c0-8.203,4.832-14.664,12.754-14.664
			c8.877,0,11.236,7.81,11.236,12.81c0,1.011-0.112,1.798-0.169,2.304H588.67z M603.165,265.778
			c0.056-3.146-1.292-8.034-6.854-8.034c-5,0-7.191,4.607-7.585,8.034H603.165z"/>
		<path style="fill:#7D7372;" d="M630.641,254.822v3.989h-11.799v23.204h-4.888v-27.192H630.641z"/>
		<path style="fill:#7D7372;" d="M640.193,254.822v11.798h1.18l10.226-11.798h6.012l-11.854,12.304
			c4.382,0.45,7.022,3.371,9.157,8.259c0.73,1.798,1.686,4.438,2.922,6.629h-5.169c-0.73-1.18-1.686-3.315-2.528-5.562
			c-1.854-4.382-4.382-6.405-8.989-6.405h-0.955v11.967h-4.888v-27.192H640.193z"/>
		<path style="fill:#7D7372;" d="M686.489,268.194c0,10.057-6.966,14.439-13.54,14.439c-7.359,0-13.034-5.394-13.034-13.99
			c0-9.102,5.956-14.439,13.484-14.439C681.209,254.204,686.489,259.878,686.489,268.194z M664.915,268.475
			c0,5.956,3.428,10.45,8.26,10.45c4.719,0,8.259-4.438,8.259-10.563c0-4.607-2.304-10.45-8.146-10.45
			C667.443,257.912,664.915,263.306,664.915,268.475z"/>
		<path style="fill:#7D7372;" d="M395.614,348.428c-1.292,0.674-4.157,1.573-7.81,1.573c-8.202,0-13.54-5.563-13.54-13.877
			c0-8.371,5.73-14.439,14.607-14.439c2.922,0,5.506,0.73,6.854,1.405l-1.123,3.82c-1.181-0.674-3.034-1.292-5.731-1.292
			c-6.236,0-9.607,4.607-9.607,10.281c0,6.292,4.046,10.169,9.439,10.169c2.809,0,4.663-0.73,6.067-1.348L395.614,348.428z"/>
		<path style="fill:#7D7372;" d="M401.291,322.583c1.91-0.337,5.449-0.618,8.652-0.618c4.551,0,12.079,0.73,12.079,6.798
			c0,3.371-2.585,5.45-5.675,6.124V335c3.989,0.562,6.91,2.809,6.91,6.742c0,7.135-8.989,8.034-14.326,8.034
			c-3.034,0-6.18-0.225-7.641-0.337V322.583z M405.954,346.18c1.404,0.169,2.416,0.225,3.989,0.225c3.314,0,8.259-0.787,8.259-4.72
			c0-3.933-3.934-4.775-8.652-4.775h-3.596V346.18z M406.01,333.651h3.708c3.652,0,7.417-1.067,7.417-4.27
			c0-2.697-2.36-3.989-7.305-3.989c-1.629,0-2.641,0.112-3.82,0.225V333.651z"/>
		<path style="fill:#7D7372;" d="M449.609,349.439h-4.888v-11.405h-3.651c-2.079,0-3.483,0.562-4.551,1.517
			c-2.023,1.629-2.754,5-3.821,7.641c-0.337,0.842-0.729,1.573-1.123,2.247h-5.281c0.618-0.899,1.18-1.91,1.686-3.09
			c1.18-2.641,1.854-6.18,4.27-8.203c0.843-0.73,1.854-1.348,3.09-1.573v-0.168c-3.539-0.394-7.191-2.584-7.191-6.742
			c0-2.809,1.518-4.719,3.596-5.899c2.248-1.292,5.563-1.854,9.102-1.854c3.259,0,6.405,0.281,8.765,0.562V349.439z
			 M444.722,325.505c-1.236-0.168-2.359-0.281-4.102-0.281c-3.371,0-7.359,0.955-7.359,4.719c0,3.483,4.326,4.72,7.247,4.72
			c2.022,0,3.09,0,4.214,0V325.505z"/>
		<path style="fill:#7D7372;" d="M459.893,333.651h2.359c4.158,0,6.967-1.91,6.967-4.438c0-2.416-2.191-3.933-5.281-3.933
			c-2.19,0-4.663,0.73-6.573,1.91l-1.236-3.034c2.753-1.686,5.899-2.472,9.046-2.472c4.157,0,9.214,1.854,9.214,7.135
			c0,3.371-3.09,5.562-6.124,6.18v0.112c4.045,0.337,7.416,2.809,7.416,6.798c0,5.899-6.012,8.09-11.742,8.09
			c-3.202,0-6.404-0.843-8.82-2.191l1.292-3.315c1.967,1.068,4.607,1.854,7.191,1.854c4.102,0,6.686-1.967,6.686-4.664
			c0-3.652-3.82-4.663-7.922-4.663h-2.472V333.651z"/>
		<path style="fill:#7D7372;" d="M496.918,349.439l-0.394-3.427h-0.168c-1.517,2.135-4.438,4.045-8.315,4.045
			c-5.506,0-8.314-3.877-8.314-7.81c0-6.573,5.843-10.169,16.349-10.113v-0.562c0-2.247-0.618-6.292-6.18-6.292
			c-2.528,0-5.169,0.787-7.079,2.022l-1.124-3.258c2.247-1.461,5.506-2.416,8.934-2.416c8.314,0,10.337,5.674,10.337,11.124v10.169
			c0,2.359,0.112,4.663,0.45,6.517H496.918z M496.188,335.562c-5.394-0.113-11.518,0.843-11.518,6.124
			c0,3.203,2.136,4.72,4.663,4.72c3.54,0,5.787-2.248,6.574-4.551c0.168-0.506,0.28-1.068,0.28-1.573V335.562z"/>
		<path style="fill:#7D7372;" d="M526.922,322.247v3.933h-8.483v23.26h-4.888v-23.26h-8.483v-3.933H526.922z"/>
		<path style="fill:#7D7372;" d="M536.026,322.247v9.214c1.124-0.225,3.034-0.281,4.494-0.281c6.124,0,12.585,1.91,12.585,9.158
			c0,2.809-1.123,4.775-2.865,6.236c-2.978,2.528-7.809,3.146-11.798,3.146c-2.753,0-5.281-0.168-7.304-0.393v-27.08H536.026z
			 M536.026,346.012c0.955,0.112,2.022,0.225,3.651,0.225c3.709,0,8.484-1.236,8.484-5.787c0-4.719-4.944-5.73-8.597-5.73
			c-1.292,0-2.415,0.112-3.539,0.281V346.012z"/>
		<path style="fill:#7D7372;" d="M578.614,348.428c-1.292,0.674-4.157,1.573-7.81,1.573c-8.202,0-13.54-5.563-13.54-13.877
			c0-8.371,5.73-14.439,14.607-14.439c2.922,0,5.506,0.73,6.854,1.405l-1.123,3.82c-1.181-0.674-3.034-1.292-5.731-1.292
			c-6.236,0-9.607,4.607-9.607,10.281c0,6.292,4.046,10.169,9.439,10.169c2.809,0,4.663-0.73,6.067-1.348L578.614,348.428z"/>
		<path style="fill:#7D7372;" d="M604.74,349.439h-4.888v-11.405h-3.651c-2.079,0-3.483,0.562-4.551,1.517
			c-2.023,1.629-2.754,5-3.821,7.641c-0.337,0.842-0.729,1.573-1.123,2.247h-5.281c0.618-0.899,1.18-1.91,1.686-3.09
			c1.18-2.641,1.854-6.18,4.27-8.203c0.843-0.73,1.854-1.348,3.09-1.573v-0.168c-3.539-0.394-7.191-2.584-7.191-6.742
			c0-2.809,1.518-4.719,3.596-5.899c2.248-1.292,5.563-1.854,9.102-1.854c3.259,0,6.405,0.281,8.765,0.562V349.439z
			 M599.853,325.505c-1.236-0.168-2.359-0.281-4.102-0.281c-3.371,0-7.359,0.955-7.359,4.719c0,3.483,4.326,4.72,7.247,4.72
			c2.022,0,3.09,0,4.214,0V325.505z"/>
	</g>
	<g>
		<path style="fill:#7D7372;" d="M269.206,338.85c-2.964,8.875-5.75,17.066-8.418,25.296c-0.819,2.526-1.8,4.584-4.936,4.258
			c-3.908-9.347-7.791-18.635-11.763-28.135c-3.426,1.066-6.064,2.008-8.766,2.703c-5.95,1.531-9.53-0.446-11.146-6.274
			c-4.332-15.627-8.604-31.27-8.518-47.694c0.039-7.333-0.332-14.684,0.077-21.994c0.404-7.231,4.05-11.811,11.452-14.304
			c8.035-2.706,16.238-3.625,24.441-4.229c18.813-1.387,37.49-4.631,56.447-4.159c6.598,0.164,13.211-0.036,19.812-0.243
			c11.259-0.352,14.818,4.391,14.965,14.394c0.186,12.649-0.06,25.303-0.009,37.955c0.032,7.899,0.077,15.807,0.46,23.694
			c0.492,10.149-3.014,15.66-12.997,17.127c-7.971,1.171-16.157,0.942-24.251,1.18c-7.129,0.21-14.263,0.214-21.395,0.293
			C279.587,338.774,274.514,338.805,269.206,338.85z M257.01,361.498c0.774-1.544,1.358-2.464,1.718-3.465
			c2.429-6.746,4.839-13.5,7.194-20.273c0.884-2.543,2.286-3.506,5.143-2.961c2.735,0.522,5.617,0.424,8.429,0.368
			c10.562-0.209,21.122-0.538,31.683-0.771c6.011-0.132,12.013,0.12,17.96-1.343c7.802-1.919,9.659-4.102,9.535-12.118
			c-0.081-5.26-0.106-10.521-0.126-15.782c-0.054-14.725-0.065-29.45-0.173-44.175c-0.014-1.855-0.328-3.757-0.822-5.55
			c-1.367-4.957-3.319-6.56-8.377-6.875c-3.009-0.188-6.034-0.125-9.053-0.137c-11.131-0.044-22.299-0.668-33.382,0.039
			c-14.683,0.936-29.341,2.609-43.924,4.59c-6.268,0.851-12.34,3.214-18.451,5.056c-0.728,0.219-1.142,1.484-2.168,2.916
			c6.402-0.054,11.941-0.1,17.479-0.146c-0.8,0.904-1.663,1.152-2.544,1.26c-4.312,0.533-8.651,0.884-12.935,1.58
			c-3.9,0.633-3.921,0.86-4.005,6.166c5.001-0.042,10.003-0.084,15.006-0.125c0.023,0.349,0.046,0.697,0.069,1.046
			c-5.092,0.79-10.185,1.58-15.41,2.391c0.022,2.605,0.039,4.635,0.061,7.34c2.574-0.021,4.948-0.226,7.282-0.006
			c2.095,0.198,4.677-1.263,6.682,1.564c-4.923,0.463-9.35,0.88-13.838,1.302c0.029,3.416,0.052,6.163,0.077,9.194
			c3.343,0.148,6.383,0.283,9.424,0.418c0.051,0.443,0.102,0.887,0.153,1.33c-2.986,0.43-5.973,0.86-9.495,1.367
			c0.498,3.643,0.945,6.917,1.369,10.028c3.557,0.633,6.594,1.173,9.631,1.714c-0.038,0.299-0.075,0.598-0.113,0.898
			c-2.901,0.342-5.802,0.684-8.678,1.023c0.869,8.182,0.869,8.167,8.484,8.173c2.215,0.002,4.43,0.115,6.645,0.177
			c-0.013,0.325-0.025,0.651-0.038,0.976c-3.999,0.604-7.999,1.207-12.512,1.888c0.842,2.61,1.511,4.684,2.329,7.221
			c5.337-0.044,10.574-0.088,15.81-0.132c0.039,0.416,0.078,0.832,0.118,1.248c-5.035,0.772-10.071,1.545-15.129,2.321
			c1.863,8.095,3.411,8.963,10.647,6.331c2.088-0.759,4.129-1.645,6.826-2.728C249.381,343.686,253.06,352.276,257.01,361.498z"/>
		<path style="fill:#7D7372;" d="M240.812,287.228c2.006-0.144,3.994-0.367,5.987-0.415c5.84-0.141,11.693-0.021,17.521-0.354
			c10.322-0.59,20.634-1.38,30.941-2.198c6.938-0.551,13.854-1.374,20.796-1.864c0.985-0.07,2.699,0.855,2.957,1.673
			c0.606,1.919-0.69,3.278-2.613,3.506c-3.351,0.398-6.73,0.556-10.098,0.811c-11.64,0.883-23.269,1.969-34.924,2.581
			c-9.019,0.473-18.07,0.341-27.107,0.506C241.794,291.518,240.298,290.732,240.812,287.228z"/>
		<path style="fill:#7D7372;" d="M318.787,273.936c-14.366,0.804-28.476,1.466-42.566,2.424
			c-10.532,0.716-21.038,1.823-31.557,2.731c-1.497,0.129-3.034,0.31-4.505,0.11c-1.99-0.27-2.983-1.472-2.125-4.136
			c1.582-0.178,3.371-0.418,5.168-0.574c8.266-0.717,16.527-1.53,24.805-2.077c7.141-0.471,14.306-0.577,21.456-0.941
			c6.963-0.355,13.924-0.781,20.877-1.286c2.052-0.149,4.065-0.786,6.117-1C319.47,268.872,319.754,269.4,318.787,273.936z"/>
		<path style="fill:#7D7372;" d="M272.796,298.918c-0.048,2.925-0.373,4.336-3.842,4.156c-7.489-0.389-15.021-0.167-22.526,0.094
			c-2.854,0.099-3.072-1.295-3.12-3.312C246.785,298.513,267.337,297.825,272.796,298.918z"/>
	</g>
</g>
<g>
</g>
<g>
</g>
<g>
</g>
<g>
</g>
<g>
</g>
<g>
</g>
<g>
</g>
<g>
</g>
<g>
</g>
<g>
</g>
<g>
</g>
<g>
</g>
<g>
</g>
<g>
</g>
<g>
</g>
</svg>
