<?xml version="1.0" encoding="iso-8859-1"?>
<!-- Generator: Adobe Illustrator 18.1.1, SVG Export Plug-In . SVG Version: 6.00 Build 0)  -->
<svg version="1.1" id="Layer_1" xmlns="http://www.w3.org/2000/svg" xmlns:xlink="http://www.w3.org/1999/xlink" x="0px" y="0px"
	 viewBox="0 0 127.373 124.381" style="enable-background:new 0 0 127.373 124.381;" xml:space="preserve">
<g>
</g>
<g>
	<path style="fill:#7D7372;" d="M53.665,94.794c-2.964,8.875-5.75,17.066-8.418,25.296c-0.819,2.526-1.8,4.584-4.936,4.258
		c-3.908-9.347-7.791-18.635-11.763-28.135c-3.426,1.066-6.064,2.008-8.766,2.703c-5.95,1.531-9.53-0.446-11.146-6.274
		C4.303,77.014,0.031,61.37,0.117,44.947c0.039-7.333-0.332-14.684,0.077-21.994c0.404-7.231,4.05-11.811,11.452-14.304
		c8.035-2.706,16.238-3.625,24.441-4.229C54.9,3.032,73.578-0.212,92.534,0.261c6.598,0.164,13.211-0.036,19.812-0.243
		c11.259-0.352,14.818,4.391,14.965,14.394c0.186,12.649-0.06,25.303-0.009,37.955c0.032,7.899,0.077,15.807,0.46,23.694
		c0.492,10.149-3.014,15.66-12.997,17.127c-7.971,1.171-16.157,0.942-24.251,1.18c-7.129,0.21-14.263,0.214-21.395,0.293
		C64.046,94.718,58.972,94.75,53.665,94.794z M41.468,117.442c0.774-1.544,1.358-2.464,1.718-3.465
		c2.429-6.746,4.839-13.5,7.194-20.273c0.884-2.543,2.286-3.506,5.143-2.961c2.735,0.522,5.617,0.424,8.429,0.368
		c10.562-0.209,21.122-0.538,31.683-0.771c6.011-0.132,12.013,0.12,17.96-1.343c7.802-1.919,9.659-4.102,9.535-12.118
		c-0.081-5.26-0.106-10.521-0.126-15.782c-0.054-14.725-0.065-29.45-0.173-44.175c-0.014-1.855-0.328-3.757-0.822-5.55
		c-1.367-4.957-3.319-6.56-8.377-6.875c-3.009-0.188-6.034-0.125-9.053-0.137C93.449,4.317,82.28,3.694,71.197,4.4
		C56.514,5.336,41.856,7.009,27.273,8.99c-6.268,0.851-12.34,3.214-18.451,5.056c-0.728,0.219-1.142,1.484-2.168,2.916
		c6.402-0.054,11.941-0.1,17.479-0.146c-0.8,0.904-1.663,1.152-2.544,1.26c-4.312,0.533-8.651,0.884-12.935,1.58
		c-3.9,0.633-3.921,0.86-4.004,6.166c5.001-0.042,10.003-0.084,15.006-0.125c0.023,0.349,0.046,0.697,0.069,1.046
		c-5.092,0.79-10.185,1.58-15.41,2.391c0.022,2.605,0.039,4.635,0.061,7.34c2.574-0.021,4.948-0.226,7.282-0.006
		c2.095,0.198,4.677-1.263,6.682,1.565c-4.923,0.463-9.35,0.88-13.838,1.302c0.029,3.416,0.052,6.163,0.077,9.194
		c3.343,0.148,6.383,0.283,9.424,0.418c0.051,0.443,0.102,0.887,0.153,1.33c-2.986,0.43-5.973,0.86-9.495,1.367
		c0.498,3.643,0.945,6.917,1.369,10.028c3.557,0.633,6.594,1.173,9.631,1.714c-0.038,0.299-0.075,0.598-0.113,0.898
		c-2.901,0.342-5.802,0.684-8.678,1.023c0.869,8.182,0.869,8.167,8.484,8.173c2.215,0.002,4.43,0.115,6.645,0.177
		c-0.013,0.325-0.025,0.651-0.038,0.976c-3.999,0.604-7.999,1.207-12.512,1.888c0.842,2.61,1.511,4.684,2.329,7.221
		c5.337-0.044,10.574-0.088,15.81-0.132c0.039,0.416,0.078,0.832,0.118,1.248c-5.035,0.772-10.071,1.545-15.129,2.321
		c1.863,8.095,3.411,8.963,10.647,6.331c2.088-0.759,4.129-1.645,6.826-2.728C33.839,99.631,37.518,108.22,41.468,117.442z"/>
	<path style="fill:#7D7372;" d="M25.27,43.173c2.006-0.144,3.994-0.367,5.987-0.415c5.84-0.141,11.693-0.021,17.521-0.354
		c10.322-0.59,20.634-1.38,30.941-2.198c6.938-0.551,13.854-1.374,20.796-1.864c0.985-0.07,2.699,0.855,2.957,1.673
		c0.606,1.919-0.69,3.278-2.613,3.506c-3.351,0.398-6.73,0.556-10.098,0.811c-11.64,0.883-23.269,1.969-34.924,2.581
		c-9.019,0.473-18.071,0.341-27.107,0.506C26.252,47.463,24.757,46.677,25.27,43.173z"/>
	<path style="fill:#7D7372;" d="M103.245,29.88c-14.366,0.804-28.476,1.466-42.566,2.424c-10.532,0.716-21.038,1.823-31.557,2.731
		c-1.497,0.129-3.034,0.31-4.505,0.11c-1.99-0.27-2.983-1.472-2.125-4.136c1.582-0.178,3.371-0.418,5.168-0.574
		c8.266-0.717,16.527-1.53,24.805-2.077c7.141-0.471,14.306-0.577,21.455-0.941c6.963-0.355,13.924-0.781,20.877-1.286
		c2.052-0.149,4.065-0.786,6.117-1C103.928,24.817,104.212,25.344,103.245,29.88z"/>
	<path style="fill:#7D7372;" d="M57.255,54.863c-0.048,2.925-0.373,4.336-3.842,4.156c-7.489-0.389-15.021-0.167-22.526,0.094
		c-2.854,0.099-3.072-1.295-3.12-3.312C31.243,54.457,51.795,53.77,57.255,54.863z"/>
</g>
<g>
</g>
<g>
</g>
<g>
</g>
<g>
</g>
<g>
</g>
<g>
</g>
<g>
</g>
<g>
</g>
<g>
</g>
<g>
</g>
<g>
</g>
<g>
</g>
<g>
</g>
<g>
</g>
<g>
</g>
</svg>
