<?xml version="1.0" encoding="iso-8859-1"?>
<!-- Generator: Adobe Illustrator 18.1.1, SVG Export Plug-In . SVG Version: 6.00 Build 0)  -->
<svg version="1.1" id="Layer_1" xmlns="http://www.w3.org/2000/svg" xmlns:xlink="http://www.w3.org/1999/xlink" x="0px" y="0px"
	 viewBox="0 0 129.386 147.658" style="enable-background:new 0 0 129.386 147.658;" xml:space="preserve">
<g>
	<path style="fill:#2B343D;" d="M64.092,80.071c-1.797,0.744-3.069,1.89-2.036,3.927c1.675,3.305,0.591,6.096-1.714,8.321
		c-9.266,8.944-15.884,19.943-23.561,30.109c-5.714,7.567-10.869,15.555-16.488,23.197c-0.85,1.156-2.905,2.099-4.347,2.028
		c-6.015-0.296-11.071-2.933-14.554-7.874c-2.464-3.495-1.481-7.698,1.572-11.532c8.192-10.289,16.347-20.613,24.305-31.082
		c3.795-4.992,7.106-10.351,10.646-15.537c2.537-3.717,5.054-7.362,10.586-5.194c0.678,0.266,2.373-0.514,2.677-1.21
		c0.445-1.018,0.444-2.586-0.04-3.595c-2.378-4.953-5.861-9.55-7.317-14.733c-2.96-10.538-4.301-21.561,1.185-31.703
		C59.183-1.022,87.434-7.494,110.224,9.159c12.302,8.989,18.27,21.19,19.108,36.511c0.73,13.36-6.031,22.631-14.465,31.465
		c-7.218,7.561-16.789,8.408-26.313,9.215C79.734,87.098,71.675,84.458,64.092,80.071z M107.851,15.059
		c-1.523-2.75-3.868-4.225-6.982-4.509c-1.191-0.867-2.303-1.881-3.587-2.579c-11.188-6.089-32.139-0.968-39.669,7.634
		c-7.266,8.301-12.456,16.998-11.347,28.726c0.778,8.227,3.363,15.551,7.544,22.501c2.348,3.903,4.829,7.85,0.995,12.052
		c1.941,2.25,3.144,1.779,4.177-0.246c0.986-1.932,2.056-3.82,3.213-5.955c1.437,0.795,2.234,1.26,3.053,1.684
		c3.71,1.927,7.245,4.422,11.175,5.649c9.645,3.011,19.214,0.707,28.688-1.51c0.897-0.21,1.778-0.754,2.518-1.334
		c11.511-9.007,19.311-19.836,17.143-35.482c-0.494,6.605-3.097,12.566-6.331,18.11c-5.937,10.179-15.213,16.371-26.829,16.907
		c-14.198,0.655-26.587-4.188-34.848-16.717c-1.562-2.369-4.049-4.8-4.184-7.306c-0.357-6.602-0.558-13.463,0.861-19.847
		c1.668-7.504,6.546-13.252,12.91-18.173c6.517-5.039,13.29-7.338,21.204-6.546c4.503,0.45,8.943,1.523,13.412,2.315
		c2.326,1.508,4.651,3.016,6.977,4.525c3.966,4.587,7.931,9.174,11.897,13.762C116.884,23.239,114.475,17.271,107.851,15.059z
		 M56.417,47.152c0.564,1.784,0.925,4.953,2.45,7.395c5.748,9.202,14.104,14.567,24.943,16.3c7.887,1.26,15.133,0.114,21.944-4.009
		c8.269-5.005,11.239-13.533,14.44-21.866c0.357-0.931-0.115-2.25-0.388-3.343c-3.18-12.706-11.251-22.012-22.925-26.6
		C81.629,9.035,71.307,13.93,61.85,25.844C57.243,31.646,57.034,38.866,56.417,47.152z M10.622,126.74
		c2.566,1.399,4.917,2.68,7.267,3.961c-2.198,0.582-4.011,0.237-5.791-0.235c-3.1-0.822-3.091-0.854-4.766,1.502
		c2.557,1.195,5.068,2.368,7.578,3.541c-0.109,0.242-0.217,0.483-0.326,0.725c-2.837-0.364-5.674-0.727-8.511-1.091
		c0.429,2.377,1.235,3.873,2.416,4.961c3.541,3.264,6.45,2.837,9.397-1.036c6.346-8.34,12.723-16.656,19.123-24.955
		c6.032-7.821,12.139-15.585,18.138-23.432c0.882-1.154,1.344-2.629,2.077-4.11c-3.102-3.65-7.52-3.777-11.282-5.664
		c-1.522,1.716-2.86,3.226-4.22,4.759c3.033,2.347,6.929,1.915,10.096,5.775c-4.776-1.192-8.312-2.074-12.358-3.083
		c-0.967,1.264-2.285,2.986-3.845,5.024c2.149,1.106,3.644,1.879,5.143,2.644c1.315,0.672,2.635,1.336,3.952,2.004
		c-0.158,0.329-0.316,0.659-0.473,0.988c-3.411-0.895-6.823-1.79-10.497-2.753c-1.071,1.699-2.035,3.229-3.007,4.773
		c1.245,0.833,2.149,1.437,3.053,2.042c-4.641,0.441-7.741,1.656-8.692,6.435c2.999,1.233,5.777,2.376,8.555,3.519
		c-0.118,0.36-0.236,0.721-0.354,1.081c-2.508-0.6-4.995-1.322-7.529-1.773c-4.129-0.735-4.741-0.329-6.178,3.414
		c1.81,1.025,3.626,2.053,5.911,3.347c-3.657,1.72-7.733-3.708-10.068,2.156c2.275,1.283,4.471,2.522,6.642,3.747
		C18.187,127.131,14.014,120.709,10.622,126.74z"/>
	<path style="fill:#2B343D;" d="M88.721,63.019c13.115-2.563,20.382-9.869,23.544-22.305c1.166,1.456,2.379,2.325,2.261,2.936
		c-0.5,2.582-0.847,5.459-2.257,7.547c-3.534,5.235-8.042,9.641-13.98,12.2C95.623,64.546,92.807,65.483,88.721,63.019z"/>
</g>
<path style="fill:#2B343D;" d="M978.871,554.525c14.573,1.615,27.346,2.674,39.997,4.549c9.331,1.382,10.33,4.198,11.417,13.639
	c2.061,17.907-2.681,34.746-6.911,51.653c-2.149,8.59-6.978,15.223-17.203,15.894c-10.771,0.708-21.489,2.4-32.264,2.827
	c-12.163,0.482-24.363,0.022-36.547-0.004c-6.525-0.014-12.85-0.672-18.249-4.909c-5.232-4.105-11.544-3.27-17.553-3.618
	c-9.313-0.541-12.402-2.932-14.473-12.093c-2.666-11.79,0.298-22.788,5.207-33.403c1.112-2.405,2.868-4.513,4.13-6.454
	c6.63-1.281,13.23-1.604,19.087-3.859c20.643-7.949,35.094-21.317,36.205-45.122c0.332-7.114,1.82-13.39,9.47-16.326
	c7.651-2.937,13.583-0.488,15.536,7.495c1.348,5.509,1.649,11.302,2.092,16.994C979.119,545.723,978.871,549.701,978.871,554.525z
	 M968.286,526.455c-0.764-0.125-1.527-0.249-2.291-0.374c-4.206,4.691-4.182,4.693-5.045,13.249
	c-1.115,11.047-4.569,20.852-13.146,28.68c-11.222,10.242-23.258,18.593-38.869,19.988c-4.016,0.359-7.326,1.51-9.336,5.003
	c-5.652,9.823-7.77,19.943-2.305,30.794c10.96,1.618,21.822,2.294,30.935,9.21c1.867,1.417,5.185,1.155,7.85,1.248
	c13.52,0.475,27.059,1.373,40.563,1.031c12.12-0.307,25.144,1.704,35.82-9.387c-10.204-0.451-20.023,2.443-29.147-2.833
	c-0.186-4.664,2.64-5.501,6.468-5.255c4.381,0.28,8.763,0.572,13.148,0.727c8.631,0.306,13.889-3.742,15.73-12.324
	c-11.032-2.578-22.852,3.537-34.405-2.712c4.539-6.197,10.007-4.394,14.751-5.069c5.621-0.8,11.283-1.474,16.808-2.728
	c4.253-0.965,5.623-4.123,4.608-8.8c-10.432-0.83-21.459,3.827-33.26-4.606c5.262-1.393,8.213-2.574,11.253-2.881
	c4.015-0.405,8.114,0.089,12.151-0.182c8.935-0.6,10.557-3.288,7.642-12.971c-12.863-0.877-25.94-2.194-39.042-2.51
	c-8.385-0.202-10.601-1.915-10.479-10.331C968.818,544.437,968.441,535.445,968.286,526.455z"/>
<g>
</g>
<g>
</g>
<g>
</g>
<g>
</g>
<g>
</g>
<g>
</g>
<g>
</g>
<g>
</g>
<g>
</g>
<g>
</g>
<g>
</g>
<g>
</g>
<g>
</g>
<g>
</g>
<g>
</g>
</svg>
