<?xml version="1.0" encoding="iso-8859-1"?>
<!-- Generator: Adobe Illustrator 18.1.1, SVG Export Plug-In . SVG Version: 6.00 Build 0)  -->
<svg version="1.1" id="&#x421;&#x43B;&#x43E;&#x439;_1"
	 xmlns="http://www.w3.org/2000/svg" xmlns:xlink="http://www.w3.org/1999/xlink" x="0px" y="0px" viewBox="0 0 2000 1600"
	 style="enable-background:new 0 0 2000 1600;" xml:space="preserve">
<g>
	<path style="fill:#FFFFFF;stroke:#7F7769;stroke-miterlimit:10;" d="M1985.904,810.759
		c-219.562-44.037-30.139-295.045-99.014-457.984c-36.198-85.602-112.754-109.178-177.315-112.314
		c-7.703-20.435-73.218-176.619-270.425-151.913c-210.967,26.422-387.482,140.921-439.135-8.808
		c-51.664,149.729-228.198,35.23-439.15,8.808C363.629,63.842,298.123,220.026,290.441,240.461
		c-64.551,3.135-141.127,26.712-177.31,112.314c-68.88,162.938,120.522,413.946-99.035,457.984
		c219.557,44.043,30.155,295.057,99.035,457.989c36.183,85.602,112.759,109.178,177.31,112.314
		c7.682,20.435,73.188,176.619,270.425,151.919c210.952-26.422,387.486-140.926,439.15,8.803
		c51.653-149.729,228.168-35.225,439.135-8.803c197.206,24.7,262.722-131.483,270.425-151.919
		c64.561-3.135,141.117-26.712,177.315-112.314C1955.764,1105.816,1766.342,854.802,1985.904,810.759z"/>
	<path style="fill:none;stroke:#7F7769;stroke-miterlimit:10;" d="M1480.236,1493.532c-11.614,0-23.752-0.787-36.085-2.327
		c-59.684-7.473-115.969-22.174-170.404-36.391c-63.032-16.459-117.478-30.676-166.05-30.676
		c-45.132,0-81.126,13.156-107.682,39.237c-26.57-26.081-62.574-39.237-107.707-39.237c-48.567,0-103.023,14.217-166.065,30.682
		c-54.426,14.212-110.701,28.912-170.379,36.386c-12.338,1.545-24.481,2.327-36.085,2.327
		c-136.07,0-182.922-106.273-190.937-127.581l-9.632-25.624l-26.823-1.308c-70.949-3.44-118.556-32.704-141.497-86.973
		c-22.299-52.756-10.515-123.474,0.873-191.866c13.761-82.64,31.413-188.63-38.078-249.422
		c69.491-60.787,51.838-166.772,38.078-249.417c-11.388-68.391-23.172-139.109-0.873-191.866
		c22.942-54.269,70.548-83.533,141.497-86.972l26.823-1.308l9.632-25.624c8.015-21.302,54.867-127.581,190.937-127.581
		c11.604,0,23.747,0.782,36.085,2.327c59.679,7.479,115.953,22.174,170.379,36.386c63.041,16.465,117.498,30.687,166.075,30.682
		c45.122,0,81.126-13.156,107.696-39.237c26.545,26.087,62.559,39.242,107.682,39.237c48.572,0,103.018-14.216,166.05-30.676
		c54.435-14.217,110.721-28.912,170.404-36.391c12.343-1.545,24.471-2.327,36.074-2.327c136.014,0,182.922,106.289,190.953,127.597
		l9.643,25.613l26.802,1.303c70.949,3.44,118.556,32.704,141.507,86.978c22.295,52.751,10.516,123.469-0.873,191.86
		c-13.77,82.645-31.433,188.63,38.058,249.417c-69.491,60.787-51.828,166.782-38.058,249.422
		c11.388,68.391,23.168,139.109,0.863,191.866c-22.942,54.269-70.548,83.533-141.497,86.973l-26.802,1.302l-9.643,25.615
		c-8.031,21.307-54.95,127.586-190.912,127.596C1480.247,1493.532,1480.247,1493.532,1480.236,1493.532z"/>
	<g>
		<g>
			<polyline style="fill:none;stroke:#7F7769;stroke-width:1.4673;stroke-linecap:round;stroke-linejoin:round;" points="
				1000.025,1422.876 1000.015,1422.883 1000.005,1422.876 			"/>
			
				<path style="fill:none;stroke:#7F7769;stroke-width:1.4673;stroke-linecap:round;stroke-linejoin:round;stroke-dasharray:0.0293,3.9108;" d="
				M996.758,1420.7c-26.072-17.009-60.085-28.126-104.45-28.126c-52.444,0-111.341,15.378-173.7,31.665
				c-53.481,13.965-108.78,28.402-166.492,35.634c-11.101,1.392-21.981,2.096-32.337,2.096
				c-115.902,0-155.396-89.42-162.138-107.345l-16.162-43.009"/>
			<polyline style="fill:none;stroke:#7F7769;stroke-width:1.4673;stroke-linecap:round;stroke-linejoin:round;" points="
				340.79,1309.78 340.785,1309.766 340.77,1309.765 			"/>
			
				<path style="fill:none;stroke:#7F7769;stroke-width:1.4673;stroke-linecap:round;stroke-linejoin:round;stroke-dasharray:0.0294,3.9215;" d="
				M336.853,1309.575l-42.998-2.083c-78.614-3.818-103.075-40.619-114.638-67.972c-18.664-44.158-7.676-110.186,2.962-174.035
				c12.178-73.12,29.959-179.844-24.15-253.143"/>
			<polyline style="fill:none;stroke:#7F7769;stroke-width:1.4673;stroke-linecap:round;stroke-linejoin:round;" points="
				156.855,810.771 156.846,810.759 156.855,810.746 			"/>
			
				<path style="fill:none;stroke:#7F7769;stroke-width:1.4673;stroke-linecap:round;stroke-linejoin:round;stroke-dasharray:0.0294,3.9215;" d="
				M159.185,807.591c52.699-73.241,35.086-178.959,22.995-251.548c-10.639-63.855-21.626-129.876-2.962-174.035
				c11.563-27.358,36.024-64.159,114.638-67.976l44.957-2.184"/>
			<polyline style="fill:none;stroke:#7F7769;stroke-width:1.4673;stroke-linecap:round;stroke-linejoin:round;" points="
				340.77,311.752 340.785,311.751 340.79,311.738 			"/>
			
				<path style="fill:none;stroke:#7F7769;stroke-width:1.4673;stroke-linecap:round;stroke-linejoin:round;stroke-dasharray:0.0293,3.9107;" d="
				M342.166,308.077l15.475-41.177c6.742-17.925,46.237-107.346,162.138-107.346c10.357,0,21.236,0.705,32.337,2.102
				c57.712,7.226,113.011,21.669,166.492,35.629c62.359,16.286,121.256,31.669,173.711,31.664
				c45.285,0,79.789-11.592,106.059-29.199"/>
			<polyline style="fill:none;stroke:#7F7769;stroke-width:1.4673;stroke-linecap:round;stroke-linejoin:round;" points="
				999.994,198.652 1000.005,198.645 1000.015,198.652 			"/>
			
				<path style="fill:none;stroke:#7F7769;stroke-width:1.4673;stroke-linecap:round;stroke-linejoin:round;stroke-dasharray:0.0293,3.9107;" d="
				M1003.262,200.828c26.068,17.004,60.075,28.126,104.435,28.121c52.453,0,111.347-15.383,173.69-31.659
				c53.482-13.965,108.79-28.408,166.512-35.634c11.101-1.397,21.986-2.102,32.327-2.102c115.855,0,155.401,89.448,162.147,107.378
				l16.187,42.977"/>
			<polyline style="fill:none;stroke:#7F7769;stroke-width:1.4673;stroke-linecap:round;stroke-linejoin:round;" points="
				1659.251,311.743 1659.256,311.757 1659.271,311.758 			"/>
			
				<path style="fill:none;stroke:#7F7769;stroke-width:1.4673;stroke-linecap:round;stroke-linejoin:round;stroke-dasharray:0.0294,3.9213;" d="
				M1663.187,311.948l42.968,2.084c78.609,3.817,103.08,40.624,114.643,67.982c18.669,44.154,7.671,110.175-2.968,174.03
				c-12.184,73.114-29.975,179.839,24.14,253.133"/>
			<polyline style="fill:none;stroke:#7F7769;stroke-width:1.4673;stroke-linecap:round;stroke-linejoin:round;" points="
				1843.145,810.746 1843.154,810.759 1843.145,810.771 			"/>
			
				<path style="fill:none;stroke:#7F7769;stroke-width:1.4673;stroke-linecap:round;stroke-linejoin:round;stroke-dasharray:0.0294,3.9213;" d="
				M1840.815,813.926c-52.704,73.246-35.081,178.964-22.985,251.559c10.639,63.849,21.637,129.877,2.968,174.03
				c-11.563,27.353-36.034,64.159-114.643,67.977l-44.926,2.178"/>
			<polyline style="fill:none;stroke:#7F7769;stroke-width:1.4673;stroke-linecap:round;stroke-linejoin:round;" points="
				1659.271,1309.765 1659.256,1309.766 1659.251,1309.78 			"/>
			
				<path style="fill:none;stroke:#7F7769;stroke-width:1.4673;stroke-linecap:round;stroke-linejoin:round;stroke-dasharray:0.0293,3.9106;" d="
				M1657.873,1313.439l-15.499,41.152c-6.747,17.93-46.303,107.377-162.117,107.377c-0.009,0-0.009,0-0.02,0
				c-10.362,0-21.247-0.704-32.337-2.096c-57.723-7.231-113.031-21.669-166.512-35.639c-62.343-16.281-121.236-31.659-173.69-31.659
				c-45.281,0-79.789,11.588-106.055,29.204"/>
		</g>
	</g>
</g>
<g>
</g>
<g>
</g>
<g>
</g>
<g>
</g>
<g>
</g>
<g>
</g>
</svg>
