<?xml version="1.0" encoding="iso-8859-1"?>
<!-- Generator: Adobe Illustrator 18.1.1, SVG Export Plug-In . SVG Version: 6.00 Build 0)  -->
<svg version="1.1" id="Layer_1" xmlns="http://www.w3.org/2000/svg" xmlns:xlink="http://www.w3.org/1999/xlink" x="0px" y="0px"
	 viewBox="0 0 93.192 93.193" style="enable-background:new 0 0 93.192 93.193;" xml:space="preserve">
<g>
	<path style="fill:#8C8C8C;" d="M693.275,31.771c0,27.822-22.74,50.4-50.8,50.4c-8.91,0-17.262-2.27-24.546-6.276l-28.124,8.949
		l9.161-27.057c-4.619-7.596-7.287-16.516-7.287-26.03c0-27.834,22.74-50.407,50.815-50.407
		C670.535-18.651,693.275,3.922,693.275,31.771L693.275,31.771z M642.474-10.604c-23.54,0-42.708,19.01-42.708,42.375
		c0,9.277,3.018,17.862,8.144,24.843l-5.341,15.739l16.41-5.222c6.761,4.426,14.835,7.017,23.495,7.017
		c23.55,0,42.71-19.008,42.71-42.377C685.184,8.407,666.024-10.604,642.474-10.604L642.474-10.604z M668.135,43.371
		c-0.316-0.514-1.139-0.83-2.393-1.435c-1.237-0.63-7.367-3.611-8.5-4.019c-1.158-0.415-1.981-0.63-2.803,0.629
		c-0.825,1.235-3.211,3.995-3.954,4.832c-0.723,0.827-1.452,0.926-2.685,0.321c-1.254-0.63-5.275-1.925-10.015-6.129
		c-3.715-3.283-6.216-7.316-6.942-8.568c-0.721-1.24-0.065-1.896,0.545-2.506c0.56-0.559,1.25-1.442,1.881-2.176
		c0.622-0.724,0.823-1.233,1.235-2.058c0.405-0.827,0.212-1.553-0.099-2.164c-0.314-0.625-2.806-6.701-3.84-9.176
		c-1.037-2.468-2.077-2.053-2.801-2.053c-0.728,0-1.548-0.106-2.388-0.106c-0.825,0-2.176,0.302-3.317,1.553
		c-1.151,1.24-4.368,4.224-4.368,10.295c0,6.1,4.472,11.964,5.097,12.787c0.625,0.815,8.614,13.708,21.273,18.646
		c12.669,4.95,12.669,3.297,14.943,3.095c2.291-0.217,7.362-2.989,8.404-5.869C668.444,46.362,668.444,43.897,668.135,43.371
		L668.135,43.371z M668.135,43.371"/>
</g>
<path style="fill-rule:evenodd;clip-rule:evenodd;fill:#8C8C8C;" d="M18.262,0H74.93c10.044,0,18.261,8.217,18.261,18.261v56.671
	c0,10.043-8.217,18.261-18.261,18.261H18.262C8.219,93.193,0,84.974,0,74.932V18.261C0,8.217,8.219,0,18.262,0L18.262,0z
	 M70.339,57.126c0-3.531-0.968-6.346-2.901-8.435c-1.931-2.087-4.508-3.46-7.718-4.141v-0.274c2.231-0.942,3.985-2.397,5.249-4.378
	c1.277-1.98,1.909-4.236,1.909-6.775c0-2.196-0.465-4.129-1.385-5.811c-0.918-1.67-2.314-3.019-4.174-4.02
	c-1.718-0.932-3.566-1.54-5.537-1.825c-1.967-0.3-4.865-0.442-8.684-0.442H28.713v52.04h20.83c3.615,0,6.585-0.323,8.923-0.978
	c2.351-0.657,4.499-1.743,6.454-3.28c1.659-1.289,2.971-2.901,3.949-4.856C69.849,61.993,70.339,59.714,70.339,57.126L70.339,57.126
	z M53.6,35.746c0-0.847-0.215-1.706-0.644-2.589c-0.43-0.882-1.097-1.526-2.016-1.921c-0.859-0.383-1.872-0.584-3.054-0.62
	c-1.181-0.036-2.935-0.048-5.262-0.048h-0.907V41.58h1.647c2.231,0,3.805-0.023,4.701-0.071c0.894-0.047,1.825-0.287,2.78-0.727
	c1.037-0.49,1.765-1.169,2.158-2.028C53.397,37.882,53.6,36.879,53.6,35.746L53.6,35.746z M56.88,56.887
	c0-1.611-0.321-2.863-0.977-3.771c-0.656-0.918-1.635-1.597-2.935-2.063c-0.788-0.312-1.885-0.478-3.268-0.514
	c-1.384-0.035-3.245-0.047-5.572-0.047h-2.411V63.52h0.705c3.4,0,5.75-0.024,7.051-0.071c1.299-0.048,2.636-0.358,3.984-0.942
	c1.193-0.514,2.052-1.265,2.601-2.256C56.606,59.261,56.88,58.139,56.88,56.887z"/>
<g>
</g>
<g>
</g>
<g>
</g>
<g>
</g>
<g>
</g>
<g>
</g>
<g>
</g>
<g>
</g>
<g>
</g>
<g>
</g>
<g>
</g>
<g>
</g>
<g>
</g>
<g>
</g>
<g>
</g>
</svg>
